<svg width="288" height="237" viewBox="0 0 288 237" fill="none" xmlns="http://www.w3.org/2000/svg">
<path d="M96.1699 20.9778C97.1335 20.9759 98.0962 20.9605 99.0597 20.9444C103.525 20.909 109.191 20.8954 112.763 23.8711C113.636 24.9518 113.636 24.9518 113.689 26.2506C113.212 27.4964 113.212 27.4964 112.286 28.2087C110.727 29.4925 109.656 30.9921 108.466 32.6121C104.221 38.2555 100.068 43.6264 92.8485 45.3084C87.935 45.9401 83.7081 44.5627 79.1832 42.8285C78.3781 42.6974 78.3781 42.6974 77.5387 43.1679C76.2888 44.5053 76.5177 45.953 76.5616 47.6857C76.5652 48.2195 76.5652 48.2196 76.5688 48.7642C76.5783 49.9009 76.5996 51.037 76.6212 52.1735C76.6297 52.9441 76.6375 53.7147 76.6444 54.4853C76.6631 56.3744 76.6924 58.263 76.7273 60.1518C76.9115 59.9517 77.0957 59.7515 77.2855 59.5453C78.8447 57.9098 80.146 56.7774 82.2955 55.9639C82.7166 55.7988 83.1376 55.6337 83.5715 55.4636C88.185 53.943 92.188 54.6102 96.6667 56.3349C99.125 57.5869 100.947 59.668 102.606 61.8482C102.606 62.1281 102.606 62.408 102.606 62.6964C102.886 62.6964 103.166 62.6964 103.455 62.6964C103.565 62.3815 103.675 62.0666 103.789 61.7422C105.069 58.8367 107.465 57.1522 110.322 55.9374C115.388 53.9795 119.63 54.3955 124.667 56.3349C127.207 57.6286 129.741 60.1181 131.03 62.6964C131.046 62.2825 131.062 61.8687 131.078 61.4423C131.12 60.633 131.12 60.633 131.163 59.8072C131.187 59.2709 131.212 58.7346 131.237 58.1821C131.455 56.759 131.455 56.759 132.003 55.9589C134.054 54.6221 136.741 54.8675 139.091 55.0627C140.384 55.5902 140.943 55.9585 141.742 57.0771C142.171 58.3633 142.304 59.659 142.485 61C143.06 60.4104 143.06 60.4104 143.647 59.8089C144.152 59.2958 144.657 58.7828 145.163 58.2699C145.415 58.0105 145.668 57.7511 145.928 57.4838C146.295 57.1128 146.295 57.1128 146.669 56.7342C147.006 56.3911 147.006 56.3911 147.349 56.041C148.725 54.869 150.253 54.9803 151.977 54.9566C152.691 54.9402 152.691 54.9402 153.419 54.9235C154.938 55.0779 155.699 55.4205 156.909 56.3349C157.758 57.6072 157.758 57.6072 157.784 58.7735C157.237 60.4453 156.469 61.1553 155.201 62.3319C153.169 64.2458 151.43 66.4525 149.697 68.6337C153.55 73.6674 153.55 73.6674 157.758 78.388C157.761 77.9857 157.761 77.9857 157.765 77.5754C157.792 74.7891 157.828 72.0031 157.869 69.217C157.883 68.1766 157.895 67.1363 157.905 66.0959C157.919 64.602 157.941 63.1084 157.965 61.6146C157.967 61.1481 157.97 60.6815 157.973 60.2009C157.986 59.5515 157.986 59.5515 157.998 58.8889C158.003 58.5075 158.008 58.1261 158.013 57.7332C158.214 56.5709 158.532 56.1993 159.455 55.4868C161.93 54.5887 164.937 54.7286 167.356 55.6458C168.364 56.3349 168.364 56.3349 168.788 57.1831C168.825 58.4819 168.837 59.7709 168.829 61.0696C168.828 61.6467 168.828 61.6467 168.827 62.2355C168.825 63.467 168.82 64.6986 168.814 65.9301C168.812 66.764 168.81 67.5978 168.809 68.4316C168.804 70.4781 168.796 72.5246 168.788 74.5711C172.008 74.5711 175.228 74.5711 178.545 74.5711C178.561 73.3 178.577 72.029 178.594 70.7194C178.613 69.4899 178.635 68.2604 178.657 67.0308C178.671 66.1757 178.683 65.3204 178.692 64.4651C178.707 63.2365 178.729 62.0082 178.753 60.7797C178.755 60.3966 178.758 60.0136 178.761 59.6189C178.773 59.0841 178.773 59.0841 178.786 58.5386C178.791 58.225 178.796 57.9114 178.801 57.5883C179.021 56.5098 179.369 56.1454 180.242 55.4868C181.399 55.0807 182.476 55.0061 183.695 54.9943C184.207 54.9882 184.207 54.9882 184.729 54.982C185.094 54.9802 185.459 54.9784 185.835 54.9765C186.214 54.9741 186.593 54.9717 186.983 54.9692C187.783 54.9652 188.583 54.9624 189.382 54.9608C190.604 54.9566 191.825 54.9435 193.047 54.9301C193.825 54.9274 194.603 54.9251 195.381 54.9235C195.745 54.9183 196.109 54.913 196.485 54.9076C198.489 54.9151 199.838 55.016 201.455 56.3349C202.715 58.2255 202.517 60.0547 202.303 62.2723C201.623 63.8585 201.201 64.2789 199.758 65.241C200.038 65.5209 200.318 65.8008 200.606 66.0892C200.725 67.1553 200.783 68.1497 200.792 69.2169C200.806 69.5022 200.82 69.7876 200.834 70.0816C200.843 70.9232 200.843 70.9232 200.606 72.4506C199.534 73.5009 199.534 73.5009 198.485 74.147C199.325 74.4269 200.165 74.7068 201.03 74.9952C201.137 74.6503 201.244 74.3055 201.354 73.9502C201.971 72.1872 202.717 70.5114 203.495 68.8143C203.65 68.4726 203.806 68.131 203.967 67.7789C204.295 67.0604 204.624 66.3422 204.954 65.6244C205.458 64.5258 205.958 63.4252 206.457 62.3245C206.777 61.625 207.098 60.9256 207.419 60.2264C207.642 59.7333 207.642 59.7333 207.869 59.2303C208.081 58.7716 208.081 58.7716 208.298 58.3035C208.421 58.0353 208.543 57.767 208.67 57.4906C209.458 56.121 210.13 55.5646 211.636 55.0627C212.466 55.0012 213.297 54.9691 214.129 54.9566C214.565 54.9457 215.002 54.9348 215.451 54.9235C216.954 55.0874 217.661 55.4029 218.848 56.3349C220.203 58.1906 221.175 60.1034 222.103 62.1895C222.311 62.65 222.311 62.65 222.524 63.1199C222.963 64.091 223.398 65.0635 223.833 66.0361C224.132 66.6989 224.431 67.3615 224.73 68.0241C225.459 69.6399 226.185 71.257 226.909 72.8747C226.915 72.3932 226.921 71.9116 226.928 71.4155C226.952 69.63 226.985 67.8446 227.02 66.0592C227.035 65.2863 227.046 64.5134 227.056 63.7404C227.07 62.6296 227.092 61.5192 227.116 60.4086C227.119 60.0626 227.122 59.7167 227.124 59.3603C227.187 56.9509 227.187 56.9509 227.875 56.0479C229.166 55.0571 230.474 55.0097 232.059 54.9943C232.571 54.9882 232.571 54.9882 233.093 54.982C233.458 54.9802 233.823 54.9784 234.199 54.9765C234.578 54.9741 234.956 54.9717 235.347 54.9692C236.146 54.9652 236.946 54.9624 237.746 54.9608C238.968 54.9566 240.189 54.9435 241.41 54.9301C242.188 54.9274 242.967 54.9251 243.745 54.9235C244.109 54.9183 244.473 54.913 244.848 54.9076C246.853 54.9151 248.201 55.016 249.818 56.3349C251.079 58.2257 250.881 60.0546 250.667 62.2723C250.11 63.5976 250.11 63.5976 249.394 64.3928C248.071 64.8336 247.156 64.8656 245.77 64.8583C245.314 64.8569 244.859 64.8556 244.39 64.8541C243.915 64.8506 243.44 64.847 242.951 64.8434C242.471 64.8415 241.991 64.8396 241.497 64.8376C240.311 64.8326 239.125 64.8256 237.939 64.8169C237.939 65.0968 237.939 65.3767 237.939 65.6651C238.328 65.6517 238.328 65.6517 238.724 65.6381C239.903 65.6028 241.082 65.5808 242.261 65.559C242.669 65.5448 243.076 65.5306 243.495 65.516C245.305 65.4909 246.54 65.5138 248.183 66.3194C249.278 67.7702 249.224 68.768 249.182 70.5687C249.183 70.8538 249.184 71.1389 249.185 71.4326C249.161 72.6376 249.109 73.5165 248.426 74.5297C247.053 75.406 245.669 75.4715 244.071 75.4607C243.713 75.4593 243.355 75.458 242.986 75.4566C242.615 75.453 242.245 75.4494 241.864 75.4458C241.298 75.4429 241.298 75.4429 240.722 75.44C239.794 75.435 238.867 75.428 237.939 75.4193C237.959 75.8894 237.979 76.3596 237.999 76.844C238.015 77.4647 238.03 78.0853 238.045 78.706C238.06 79.0155 238.074 79.3249 238.089 79.6437C238.116 81.1537 238.08 82.0167 237.164 83.2452C234.89 84.8639 232.045 84.4199 229.371 84.4272C228.453 84.4313 227.535 84.4445 226.617 84.4578C226.031 84.4606 225.444 84.4628 224.857 84.4645C224.06 84.4704 224.06 84.4704 223.246 84.4765C221.709 84.3138 220.923 83.9723 219.697 83.053C219.119 82.2164 219.119 82.2164 218.716 81.3301C218.578 81.0366 218.439 80.743 218.297 80.4405C218 79.6602 218 79.6602 218 78.8121C215.62 78.952 213.24 79.092 210.788 79.2361C210.534 79.7697 210.28 80.3033 210.019 80.853C209.431 82.0897 208.874 83.0156 207.818 83.9012C206.494 84.3426 205.572 84.3791 204.183 84.3802C203.698 84.3815 203.214 84.3829 202.715 84.3842C202.191 84.3834 201.668 84.3825 201.128 84.3816C200.59 84.382 200.051 84.3824 199.497 84.3829C198.357 84.3831 197.217 84.3826 196.076 84.3806C194.62 84.3782 193.164 84.3796 191.707 84.3821C190.313 84.384 188.92 84.3827 187.526 84.3816C187.005 84.3825 186.484 84.3833 185.947 84.3842C185.214 84.3822 185.214 84.3822 184.467 84.3802C183.825 84.3797 183.826 84.3797 183.171 84.3792C181.939 84.3253 181.939 84.3253 180.588 84.0833C179.364 83.8039 179.364 83.8039 178.121 84.3253C176.864 84.3717 175.617 84.3949 174.359 84.3965C173.99 84.398 173.62 84.3994 173.239 84.4008C172.456 84.403 171.674 84.404 170.891 84.4039C169.697 84.4048 168.503 84.4125 167.308 84.4206C166.547 84.4218 165.787 84.4226 165.026 84.423C164.67 84.4261 164.314 84.4291 163.947 84.4323C161.45 84.4226 159.867 84.0344 157.758 82.6289C157.478 82.9088 157.198 83.1887 156.909 83.4771C155.459 83.99 154.008 83.9861 152.481 84.0072C151.773 84.0236 151.773 84.0236 151.051 84.0404C148.403 83.7682 147.084 82.2194 145.375 80.2964C145.01 79.8897 144.645 79.4829 144.27 79.0639C143.333 77.9639 143.333 77.9639 142.485 76.6916C142.415 77.2664 142.415 77.2664 142.344 77.8529C142.243 78.6032 142.243 78.6032 142.14 79.3687C142.044 80.1141 142.044 80.1141 141.946 80.8746C141.633 82.2191 141.469 82.6933 140.364 83.4771C139.076 83.9062 138.159 83.9715 136.811 83.9807C136.414 83.9867 136.017 83.9928 135.607 83.999C133.867 83.8552 132.693 83.443 131.455 82.2048C131.327 81.2018 131.244 80.1927 131.189 79.1831C131.142 78.368 131.142 78.368 131.093 77.5364C131.073 77.1177 131.052 76.6989 131.03 76.2675C130.881 76.4829 130.732 76.6983 130.578 76.9202C127.585 81.0919 124.304 83.4642 119.152 84.3253C115.195 84.7501 111.507 83.705 107.989 81.9133C106.312 80.471 104.795 78.8771 103.455 77.1157C103.455 76.8358 103.455 76.5559 103.455 76.2675C103.175 76.2675 102.895 76.2675 102.606 76.2675C102.496 76.5824 102.385 76.8973 102.271 77.2217C100.991 80.1272 98.5953 81.8117 95.7386 83.0265C90.6839 84.9802 86.4177 84.5827 81.3939 82.6289C79.5299 81.7082 78.1473 80.3151 76.7273 78.8121C76.561 79.2669 76.3948 79.7217 76.2235 80.1904C75.7052 81.4299 75.4586 81.7777 74.3409 82.6289C73.1723 83.4373 73.1723 83.4373 72.9886 85.0675C72.9624 85.5223 72.9361 85.9772 72.9091 86.4458C73.2897 86.6164 73.2897 86.6164 73.678 86.7904C75.1622 87.5958 75.7657 88.2271 76.303 89.8386C76.4796 91.6511 76.5052 93.1907 75.7727 94.8747C74.6584 96.2274 73.7248 96.9177 72.0606 97.4723C70.8807 97.5219 69.7111 97.5478 68.5309 97.5541C68.1706 97.5576 67.8103 97.561 67.4391 97.5646C66.2447 97.5751 65.0503 97.5821 63.8558 97.5883C63.2423 97.5916 63.2423 97.5916 62.6163 97.5951C60.4484 97.6064 58.2804 97.6147 56.1125 97.6208C54.3245 97.6264 52.5368 97.6382 50.749 97.6556C48.5854 97.6766 46.422 97.687 44.2583 97.69C43.4371 97.6928 42.616 97.6992 41.7949 97.7095C36.4736 97.7718 31.7074 97.6952 27.5152 93.947C24.8746 91.0048 24.0586 87.9308 24.0461 84.0526C24.0433 83.678 24.0405 83.3034 24.0377 82.9174C24.0293 81.676 24.0244 80.4345 24.0201 79.1931C24.0184 78.7686 24.0167 78.344 24.0149 77.9066C24.006 75.6584 24 73.4102 23.996 71.162C23.9913 68.8447 23.9767 66.5275 23.9599 64.2103C23.9487 62.4246 23.9452 60.6389 23.9437 58.8532C23.9416 57.9993 23.9367 57.1455 23.9288 56.2916C23.9184 55.0929 23.9189 53.8947 23.9218 52.696C23.9164 52.3468 23.911 51.9977 23.9054 51.638C23.9391 47.8415 25.4715 44.9622 28.0272 42.2221C30.7856 39.5728 33.5833 38.8227 37.3222 38.8118C37.6578 38.8075 37.9933 38.8032 38.339 38.7989C39.4408 38.7858 40.5426 38.7786 41.6444 38.7714C42.4112 38.7634 43.178 38.7551 43.9448 38.7465C45.9576 38.7248 47.9704 38.7079 49.9832 38.6922C52.0394 38.6752 54.0954 38.6535 56.1515 38.6322C60.1818 38.5912 64.2121 38.5554 68.2424 38.5229C68.447 37.981 68.6512 37.4389 68.8553 36.8968C69.0259 36.444 69.0259 36.444 69.2 35.9821C69.4422 35.3274 69.6699 34.6673 69.8913 34.0053C71.5327 29.3229 74.8932 26.2981 79.2727 24.1036C81.3592 23.2706 83.4614 22.5515 85.6364 21.9831C85.9288 21.9039 86.2213 21.8246 86.5226 21.7429C89.709 20.9874 92.9139 20.9771 96.1699 20.9778ZM84.7879 66.9374C84.1488 68.8541 84.0473 70.4826 84.8939 72.3446C86.1913 74.012 86.8234 74.5053 88.9773 74.7831C91.0063 74.7111 91.897 73.8929 93.2727 72.4506C93.9119 70.5339 94.0133 68.9053 93.1667 67.0434C91.8693 65.3759 91.2372 64.8826 89.0833 64.6048C87.0543 64.6769 86.1636 65.4951 84.7879 66.9374ZM112.788 66.9374C112.149 68.8541 112.047 70.4826 112.894 72.3446C114.191 74.012 114.823 74.5053 116.977 74.7831C119.006 74.7111 119.897 73.8929 121.273 72.4506C121.912 70.5339 122.013 68.9053 121.167 67.0434C119.869 65.3759 119.237 64.8826 117.083 64.6048C115.054 64.6769 114.164 65.4951 112.788 66.9374ZM36 84.3253C36.14 84.7452 36.28 85.165 36.4242 85.5976C44.5442 85.5976 52.6642 85.5976 61.0303 85.5976C61.0303 85.1777 61.0303 84.7579 61.0303 84.3253C52.7703 84.3253 44.5103 84.3253 36 84.3253Z" fill="#3F5045"/>
<path d="M110.667 25.3759C110.667 25.6558 110.667 25.9357 110.667 26.2241C110.372 26.4499 110.077 26.6757 109.773 26.9083C108.184 28.2187 107.085 29.7424 105.867 31.3928C105.377 32.0429 104.885 32.6923 104.393 33.341C104.04 33.8059 104.04 33.8059 103.68 34.2803C100.728 38.1435 97.6611 41.0411 92.8485 42.3398C91.7225 42.4296 90.6579 42.4809 89.5341 42.4723C89.2366 42.4718 88.9391 42.4712 88.6326 42.4707C86.2589 42.4268 84.4106 41.9964 82.2424 41.0675C82.8336 39.6345 83.4191 39.0266 84.7464 38.2413C85.0856 38.0386 85.4248 37.8359 85.7743 37.6271C86.14 37.4154 86.5058 37.2037 86.8826 36.9856C87.2565 36.7651 87.6304 36.5447 88.0157 36.3175C91.8208 34.0958 95.7137 32.046 99.6364 30.041C90.5071 32.1524 80.4915 36.4564 73.7576 43.188C73.7135 44.3145 73.6966 45.4304 73.6974 46.5572C73.6952 47.0868 73.6952 47.0868 73.6929 47.6272C73.6898 48.3966 73.6875 49.166 73.686 49.9355C73.683 51.1528 73.6763 52.37 73.6685 53.5872C73.6462 57.0491 73.6259 60.511 73.6193 63.9729C73.615 66.0881 73.6026 68.2031 73.5848 70.3182C73.5796 71.1252 73.5774 71.9323 73.5784 72.7393C73.5794 73.8686 73.57 74.9972 73.5582 76.1264C73.5624 76.6278 73.5624 76.6278 73.5667 77.1393C73.541 78.6393 73.4482 79.5034 72.5503 80.7293C71.6364 81.3566 71.6364 81.3566 70.3636 81.3566C70.3636 83.5959 70.3636 85.8351 70.3636 88.1422C71.0636 88.4221 71.7636 88.702 72.4848 88.9904C73.3333 89.8386 73.3333 89.8386 73.4924 91.2699C73.3333 92.8073 73.3333 92.8073 72.6982 93.7382C71.2053 94.8143 69.8359 94.7379 68.0638 94.7164C67.5243 94.7198 67.5243 94.7198 66.974 94.7234C65.7853 94.7287 64.5971 94.7216 63.4084 94.714C62.5809 94.7141 61.7534 94.7147 60.9259 94.7159C59.1909 94.7165 57.456 94.7112 55.721 94.7015C53.5012 94.6895 51.2817 94.6906 49.062 94.696C47.3525 94.699 45.643 94.6957 43.9335 94.6904C43.1154 94.6885 42.2973 94.6883 41.4791 94.69C40.3327 94.6912 39.1867 94.6842 38.0403 94.675C37.7046 94.6769 37.3688 94.6788 37.0229 94.6808C34.2968 94.6445 32.3091 94.0707 30.1932 92.2506C27.7292 89.388 27.0279 87.3751 27.0158 83.6607C27.0116 83.104 27.0116 83.104 27.0074 82.536C26.999 81.3063 26.9941 80.0766 26.9898 78.8469C26.9881 78.4265 26.9864 78.0061 26.9846 77.573C26.9757 75.3473 26.9697 73.1215 26.9657 70.8958C26.961 68.6003 26.9464 66.305 26.9296 64.0096C26.9184 62.2417 26.9149 60.4739 26.9134 58.706C26.9113 57.8601 26.9064 57.0142 26.8985 56.1683C26.8882 54.9817 26.8886 53.7955 26.8915 52.6089C26.8861 52.2622 26.8807 51.9155 26.8751 51.5584C26.9007 48.7082 27.755 46.5535 29.5767 44.3575C29.8414 44.129 30.1061 43.9005 30.3788 43.6651C30.7693 43.3125 30.7693 43.3125 31.1676 42.9527C33.5695 41.5011 36.3001 41.3674 39.0429 41.3833C39.5351 41.381 39.5351 41.381 40.0372 41.3786C40.7432 41.3757 41.4492 41.3746 42.1552 41.3752C43.2735 41.3756 44.3916 41.3701 45.5099 41.3629C48.6869 41.3434 51.864 41.3329 55.0411 41.3301C56.9899 41.3279 58.9384 41.3177 60.8871 41.3024C61.6278 41.2982 62.3685 41.2972 63.1092 41.2995C64.1439 41.3025 65.178 41.2951 66.2127 41.2855C66.6693 41.2907 66.6693 41.2907 67.1351 41.296C69.1658 41.2626 70.222 40.8279 71.6364 39.3711C71.9781 38.3311 71.9781 38.3311 72.0341 37.1976C72.5466 33.7042 74.0878 31.1035 76.8068 28.8482C86.1763 22.2422 100.03 21.9926 110.667 25.3759ZM36 84.3253C36.14 84.7452 36.28 85.165 36.4242 85.5976C44.5442 85.5976 52.6642 85.5976 61.0303 85.5976C61.0303 85.1778 61.0303 84.7579 61.0303 84.3253C52.7703 84.3253 44.5103 84.3253 36 84.3253Z" fill="#FCFCFC"/>
<path d="M168.364 56.3349C169.093 57.7922 168.839 59.4666 168.829 61.0696C168.829 61.4543 168.828 61.8391 168.828 62.2355C168.825 63.467 168.82 64.6986 168.814 65.9301C168.812 66.764 168.81 67.5978 168.809 68.4316C168.804 70.4781 168.796 72.5246 168.788 74.5711C172.008 74.5711 175.228 74.5711 178.545 74.5711C178.561 73.3 178.577 72.029 178.594 70.7194C178.613 69.4899 178.635 68.2604 178.657 67.0308C178.671 66.1756 178.683 65.3204 178.692 64.4651C178.707 63.2365 178.729 62.0082 178.753 60.7797C178.755 60.3966 178.758 60.0136 178.761 59.6189C178.769 59.2624 178.778 58.9059 178.786 58.5386C178.791 58.225 178.796 57.9114 178.801 57.5882C179.021 56.5098 179.369 56.1454 180.242 55.4867C181.399 55.0807 182.476 55.0061 183.695 54.9943C184.036 54.9902 184.378 54.9862 184.729 54.982C185.094 54.9802 185.459 54.9784 185.835 54.9765C186.403 54.9729 186.403 54.9729 186.983 54.9692C187.783 54.9652 188.583 54.9624 189.382 54.9608C190.604 54.9566 191.825 54.9435 193.047 54.9301C193.825 54.9274 194.603 54.9251 195.381 54.9235C195.745 54.9183 196.109 54.913 196.485 54.9076C198.489 54.9151 199.838 55.016 201.455 56.3349C202.715 58.2255 202.517 60.0547 202.303 62.2723C201.623 63.8585 201.201 64.2789 199.758 65.241C200.178 65.6608 200.178 65.6608 200.606 66.0892C200.725 67.1553 200.783 68.1497 200.792 69.2169C200.806 69.5022 200.82 69.7876 200.834 70.0816C200.843 70.9232 200.843 70.9232 200.606 72.4506C199.534 73.5009 199.534 73.5009 198.485 74.147C199.325 74.4269 200.165 74.7068 201.03 74.9952C201.137 74.6503 201.244 74.3055 201.354 73.9502C201.971 72.1872 202.717 70.5114 203.495 68.8143C203.65 68.4726 203.806 68.131 203.967 67.7789C204.295 67.0604 204.624 66.3422 204.954 65.6244C205.458 64.5258 205.958 63.4252 206.457 62.3245C206.777 61.625 207.098 60.9256 207.419 60.2264C207.567 59.8977 207.716 59.569 207.869 59.2303C208.081 58.7716 208.081 58.7716 208.298 58.3035C208.421 58.0353 208.543 57.767 208.67 57.4906C209.458 56.121 210.13 55.5646 211.636 55.0627C212.466 55.0012 213.297 54.9691 214.129 54.9566C214.565 54.9457 215.002 54.9348 215.451 54.9235C216.954 55.0874 217.661 55.4029 218.848 56.3349C220.203 58.1906 221.175 60.1034 222.103 62.1895C222.312 62.65 222.312 62.65 222.524 63.1199C222.963 64.091 223.398 65.0635 223.833 66.0361C224.132 66.6989 224.431 67.3615 224.73 68.0241C225.459 69.6399 226.185 71.2569 226.909 72.8747C226.915 72.3932 226.921 71.9116 226.928 71.4155C226.952 69.63 226.985 67.8446 227.02 66.0592C227.035 65.2863 227.046 64.5134 227.056 63.7404C227.07 62.6296 227.092 61.5192 227.116 60.4086C227.119 60.0626 227.122 59.7167 227.124 59.3603C227.187 56.9509 227.187 56.9509 227.875 56.0479C229.166 55.0571 230.474 55.0097 232.059 54.9943C232.4 54.9902 232.741 54.9862 233.093 54.982C233.458 54.9802 233.823 54.9784 234.199 54.9765C234.767 54.9729 234.767 54.9729 235.347 54.9692C236.146 54.9652 236.946 54.9624 237.746 54.9608C238.968 54.9566 240.189 54.9435 241.41 54.9301C242.188 54.9274 242.967 54.9251 243.745 54.9235C244.109 54.9183 244.473 54.913 244.848 54.9076C246.853 54.9151 248.201 55.016 249.818 56.3349C251.079 58.2257 250.881 60.0546 250.667 62.2723C250.11 63.5976 250.11 63.5976 249.394 64.3928C248.071 64.8336 247.156 64.8656 245.77 64.8583C245.314 64.8569 244.859 64.8555 244.39 64.8541C243.915 64.8506 243.44 64.847 242.951 64.8434C242.471 64.8415 241.991 64.8395 241.497 64.8376C240.311 64.8326 239.125 64.8256 237.939 64.8169C237.939 65.0968 237.939 65.3767 237.939 65.6651C238.198 65.6562 238.457 65.6473 238.724 65.6381C239.903 65.6027 241.082 65.5808 242.261 65.559C242.669 65.5448 243.076 65.5306 243.495 65.516C245.305 65.4909 246.54 65.5138 248.183 66.3194C249.278 67.7702 249.224 68.768 249.182 70.5687C249.183 70.8538 249.184 71.1389 249.185 71.4326C249.161 72.6376 249.109 73.5165 248.426 74.5297C247.053 75.406 245.669 75.4715 244.071 75.4607C243.713 75.4593 243.355 75.458 242.986 75.4566C242.615 75.453 242.245 75.4494 241.864 75.4458C241.487 75.4439 241.11 75.442 240.722 75.44C239.794 75.435 238.867 75.428 237.939 75.4193C237.959 75.8894 237.979 76.3596 237.999 76.844C238.015 77.4646 238.03 78.0853 238.045 78.706C238.06 79.0154 238.074 79.3249 238.089 79.6437C238.116 81.1537 238.08 82.0167 237.164 83.2452C234.89 84.8639 232.045 84.4199 229.371 84.4272C228.453 84.4313 227.535 84.4445 226.617 84.4578C226.031 84.4606 225.444 84.4628 224.857 84.4645C224.326 84.4684 223.794 84.4724 223.246 84.4765C221.709 84.3138 220.923 83.9723 219.697 83.053C219.119 82.2164 219.119 82.2164 218.716 81.3301C218.578 81.0366 218.439 80.743 218.297 80.4405C218 79.6602 218 79.6602 218 78.812C214.43 79.022 214.43 79.022 210.788 79.2361C210.534 79.7697 210.28 80.3033 210.019 80.853C209.431 82.0897 208.874 83.0156 207.818 83.9012C206.494 84.3426 205.572 84.3791 204.183 84.3802C203.698 84.3815 203.214 84.3829 202.715 84.3842C202.191 84.3834 201.668 84.3825 201.128 84.3816C200.59 84.382 200.051 84.3824 199.497 84.3829C198.357 84.3831 197.217 84.3826 196.076 84.3806C194.62 84.3782 193.164 84.3796 191.707 84.3821C190.313 84.384 188.92 84.3827 187.526 84.3816C187.005 84.3825 186.484 84.3833 185.947 84.3842C185.214 84.3822 185.214 84.3822 184.467 84.3802C184.039 84.3798 183.612 84.3795 183.171 84.3792C181.939 84.3253 181.939 84.3253 180.588 84.0833C179.364 83.8038 179.364 83.8038 178.121 84.3253C176.864 84.3717 175.617 84.3949 174.359 84.3965C173.99 84.3979 173.62 84.3994 173.239 84.4008C172.456 84.403 171.674 84.404 170.891 84.4039C169.697 84.4048 168.503 84.4125 167.308 84.4206C166.547 84.4218 165.787 84.4226 165.026 84.423C164.67 84.4261 164.314 84.4291 163.947 84.4323C161.656 84.4234 159.88 84.3265 158.182 82.6289C158.071 81.5534 158.071 81.5534 158.065 80.178C158.061 79.6643 158.057 79.1505 158.053 78.6212C158.053 78.0637 158.054 77.5062 158.054 76.9318C158.053 76.356 158.051 75.7803 158.049 75.2045C158.046 73.997 158.046 72.7895 158.048 71.582C158.05 70.0341 158.043 68.4865 158.033 66.9386C158.027 65.7493 158.027 64.56 158.028 63.3706C158.028 62.5223 158.022 61.674 158.016 60.8257C158.019 60.3106 158.021 59.7955 158.024 59.2648C158.024 58.8106 158.023 58.3564 158.023 57.8884C158.182 56.759 158.182 56.759 158.779 55.9841C161.34 54.099 165.9 54.6498 168.364 56.3349Z" fill="#FAFAFA"/>
<path d="M125.165 59.9431C127.321 61.6371 128.727 63.3895 129.333 66.0892C129.691 69.732 129.922 73.6163 127.636 76.6916C125.053 79.5637 122.686 81.1702 118.837 81.4875C114.487 81.6759 111.441 81.0214 107.989 78.3084C105.525 75.9688 104.683 73.7782 104.528 70.3789C104.476 66.8221 104.834 64.0405 107.268 61.3346C112.247 56.5717 119.461 55.9911 125.165 59.9431ZM112.788 66.9374C112.149 68.8541 112.047 70.4826 112.894 72.3446C114.191 74.012 114.823 74.5053 116.977 74.7831C119.006 74.7111 119.897 73.8929 121.273 72.4506C121.912 70.5339 122.013 68.9053 121.167 67.0434C119.869 65.3759 119.237 64.8827 117.083 64.6048C115.054 64.6769 114.164 65.4951 112.788 66.9374Z" fill="#FBFBFB"/>
<path d="M97.1655 59.9431C99.3211 61.6371 100.727 63.3895 101.333 66.0892C101.691 69.732 101.922 73.6163 99.6364 76.6916C97.0526 79.5637 94.6855 81.1702 90.8366 81.4875C86.4867 81.6759 83.4409 81.0214 79.9886 78.3084C77.5253 75.9688 76.6828 73.7782 76.5283 70.3789C76.4761 66.8221 76.8336 64.0405 79.2677 61.3346C84.2474 56.5717 91.4608 55.9911 97.1655 59.9431ZM84.7879 66.9374C84.1487 68.8541 84.0473 70.4826 84.8939 72.3446C86.1913 74.012 86.8234 74.5053 88.9773 74.7831C91.0063 74.7111 91.897 73.8929 93.2727 72.4506C93.9118 70.5339 94.0133 68.9053 93.1667 67.0434C91.8693 65.3759 91.2372 64.8827 89.0833 64.6048C87.0543 64.6769 86.1636 65.4951 84.7879 66.9374Z" fill="#FBFBFB"/>
<path d="M211.636 58.0313C213.316 58.0313 214.996 58.0313 216.727 58.0313C219.002 62.5031 221.173 67.0123 223.254 71.5774C223.709 72.5745 224.167 73.5703 224.625 74.5661C224.917 75.206 225.21 75.8461 225.502 76.4861C225.638 76.7808 225.773 77.0754 225.913 77.379C226.518 78.711 226.977 79.9304 227.333 81.3566C225.513 81.3566 223.693 81.3566 221.818 81.3566C219.697 76.7976 219.697 76.7976 219.697 75.8434C216.057 75.8434 212.417 75.8434 208.667 75.8434C208.247 77.1029 207.827 78.3625 207.394 79.6602C207.114 80.22 206.834 80.7799 206.545 81.3566C204.865 81.3566 203.185 81.3566 201.455 81.3566C201.751 79.8737 201.946 78.9406 202.549 77.6425C202.685 77.3463 202.821 77.0501 202.961 76.7449C203.109 76.4299 203.256 76.1149 203.408 75.7904C203.639 75.292 203.639 75.292 203.873 74.7837C204.364 73.7222 204.858 72.6623 205.352 71.6024C205.676 70.9029 206 70.2032 206.324 69.5035C206.952 68.1472 207.581 66.7916 208.212 65.4364C209.358 62.9705 210.497 60.5009 211.636 58.0313Z" fill="#3C4D42"/>
<path d="M134 58.0313C135.68 58.0313 137.36 58.0313 139.091 58.0313C139.231 61.3902 139.371 64.749 139.515 68.2096C142.012 65.7185 142.012 65.7185 144.394 63.1205C144.76 62.7072 144.76 62.7072 145.133 62.2855C145.648 61.6908 146.144 61.0797 146.625 60.4566C147.91 58.9299 148.689 58.1171 150.714 57.8193C152.089 57.8193 153.422 57.8815 154.788 58.0313C154.217 59.295 153.574 60.2099 152.617 61.2104C152.231 61.6184 152.231 61.6184 151.836 62.0346C151.568 62.3142 151.299 62.5938 151.023 62.8819C149.376 64.608 147.757 66.314 146.303 68.2096C146.958 69.6877 147.841 70.815 148.875 72.053C149.213 72.4608 149.551 72.8687 149.899 73.2889C150.252 73.712 150.606 74.1351 150.97 74.5711C151.669 75.4092 152.368 76.2485 153.064 77.0892C153.374 77.4604 153.685 77.8316 154.004 78.214C154.685 79.1016 155.185 79.9144 155.636 80.9325C150.665 81.6415 150.665 81.6415 148.462 80.028C147.375 78.8213 146.405 77.5842 145.455 76.2675C144.872 75.5333 144.289 74.7999 143.705 74.0675C143.296 73.5301 142.889 72.9917 142.485 72.4506C141.241 73.1326 140.346 73.8374 139.515 74.9952C139.127 76.9776 139.072 78.9161 139.091 80.9325C137.411 80.9325 135.731 80.9325 134 80.9325C134 73.3751 134 65.8177 134 58.0313Z" fill="#FCFCFC"/>
<path d="M181.515 58.0313C187.395 58.0313 193.275 58.0313 199.333 58.0313C199.333 59.2909 199.333 60.5505 199.333 61.8482C195.133 61.8482 190.933 61.8482 186.606 61.8482C186.606 63.6676 186.606 65.4869 186.606 67.3614C190.386 67.3614 194.166 67.3614 198.061 67.3614C198.061 68.621 198.061 69.8806 198.061 71.1783C194.281 71.1783 190.501 71.1783 186.606 71.1783C186.606 73.2776 186.606 75.3769 186.606 77.5398C190.946 77.5398 195.286 77.5398 199.758 77.5398C199.758 78.7993 199.758 80.0589 199.758 81.3566C193.738 81.3566 187.718 81.3566 181.515 81.3566C181.515 73.6593 181.515 65.9619 181.515 58.0313Z" fill="#3C4D42"/>
<path d="M229.879 58.0313C235.759 58.0313 241.639 58.0313 247.697 58.0313C247.697 59.2909 247.697 60.5505 247.697 61.8482C243.497 61.8482 239.297 61.8482 234.97 61.8482C234.97 64.0874 234.97 66.3267 234.97 68.6337C238.75 68.6337 242.53 68.6337 246.424 68.6337C246.424 69.8933 246.424 71.1529 246.424 72.4506C242.784 72.4506 239.144 72.4506 235.394 72.4506C235.394 75.3896 235.394 78.3286 235.394 81.3566C233.574 81.3566 231.754 81.3566 229.879 81.3566C229.879 73.6593 229.879 65.9619 229.879 58.0313Z" fill="#3F4F45"/>
<path d="M37.9924 81.164C38.274 81.1638 38.5556 81.1635 38.8458 81.1633C39.7734 81.1645 40.7004 81.1776 41.6278 81.191C42.2722 81.1941 42.9166 81.1965 43.5609 81.1982C45.2544 81.2047 46.9477 81.2214 48.6411 81.2401C50.3701 81.2575 52.0991 81.2652 53.8281 81.2738C57.2189 81.292 60.6094 81.3218 64 81.3566C64 83.7358 64 86.115 64 88.5663C60.3306 88.6142 56.6614 88.6531 52.9917 88.6761C51.2877 88.6872 49.5838 88.7022 47.8799 88.7262C46.235 88.7493 44.5902 88.762 42.9451 88.7674C42.3181 88.7714 41.691 88.779 41.0641 88.7905C40.1844 88.8059 39.3056 88.808 38.4258 88.807C37.9256 88.8117 37.4253 88.8164 36.9099 88.8213C35.1802 88.4907 34.552 87.7894 33.4545 86.4458C33.0696 85.1623 33.2576 84.4315 33.4545 83.053C34.7715 81.247 35.8203 81.148 37.9924 81.164ZM36 84.3253C36.14 84.7452 36.28 85.165 36.4242 85.5976C44.5442 85.5976 52.6642 85.5976 61.0303 85.5976C61.0303 85.1777 61.0303 84.7579 61.0303 84.3253C52.7703 84.3253 44.5103 84.3253 36 84.3253Z" fill="#445449"/>
<path d="M160.727 58.0313C162.407 58.0313 164.087 58.0313 165.818 58.0313C165.818 64.4691 165.818 70.9069 165.818 77.5398C169.878 77.5398 173.938 77.5398 178.121 77.5398C178.121 78.7993 178.121 80.0589 178.121 81.3566C172.381 81.3566 166.641 81.3566 160.727 81.3566C160.727 73.6593 160.727 65.9619 160.727 58.0313Z" fill="#3E4E44"/>
<path d="M120.053 62.2988C121.815 63.4861 123.285 65.0237 124.242 66.9374C124.455 69.6687 124.658 72.2845 122.97 74.5711C121.117 76.4227 119.81 77.4688 117.11 77.6458C115.029 77.604 113.586 77.058 112.08 75.5667C109.951 73.1755 109.666 71.3707 109.701 68.1864C109.918 65.8786 111.157 64.6628 112.814 63.2C115.074 61.518 117.444 61.4122 120.053 62.2988ZM112.788 66.9374C112.149 68.8541 112.047 70.4826 112.894 72.3446C114.191 74.012 114.823 74.5053 116.977 74.7831C119.006 74.7111 119.897 73.8929 121.273 72.4506C121.912 70.5339 122.013 68.9053 121.167 67.0434C119.869 65.3759 119.237 64.8826 117.083 64.6048C115.054 64.6769 114.164 65.4951 112.788 66.9374Z" fill="#3D4E43"/>
<path d="M92.053 62.2988C93.8154 63.4861 95.2853 65.0237 96.2424 66.9374C96.4551 69.6687 96.658 72.2845 94.9697 74.5711C93.1174 76.4227 91.8098 77.4688 89.1099 77.6458C87.0294 77.604 85.5862 77.058 84.0803 75.5667C81.9512 73.1755 81.666 71.3707 81.7005 68.1864C81.9179 65.8786 83.1568 64.6628 84.8144 63.2C87.0739 61.518 89.4445 61.4122 92.053 62.2988ZM84.7879 66.9374C84.1488 68.8541 84.0473 70.4826 84.894 72.3446C86.1913 74.012 86.8234 74.5053 88.9773 74.7831C91.0063 74.7111 91.897 73.8929 93.2727 72.4506C93.9119 70.5339 94.0133 68.9053 93.1667 67.0434C91.8693 65.3759 91.2372 64.8826 89.0833 64.6048C87.0543 64.6769 86.1636 65.4951 84.7879 66.9374Z" fill="#3D4E43"/>
<path d="M40.6667 54.6386C43.8611 54.6278 47.0555 54.6204 50.2499 54.6153C51.3376 54.6131 52.4253 54.6102 53.513 54.6066C55.0725 54.6014 56.632 54.599 58.1915 54.5971C58.6812 54.5949 59.1708 54.5928 59.6753 54.5905C60.3505 54.5905 60.3505 54.5905 61.0393 54.5904C61.4378 54.5895 61.8363 54.5885 62.2469 54.5876C63.1515 54.6386 63.1515 54.6386 63.5758 55.0627C63.6553 56.3084 63.6553 56.3084 63.5758 57.6072C62.5073 58.6754 62.1439 58.566 60.665 58.5786C60.236 58.584 59.807 58.5895 59.365 58.595C58.9001 58.596 58.4352 58.5969 57.9562 58.5979C57.2422 58.6021 57.2422 58.6021 56.5137 58.6064C55.5055 58.6107 54.4973 58.6127 53.4891 58.6126C51.9434 58.6144 50.3981 58.6298 48.8524 58.6459C47.8744 58.6484 46.8964 58.6501 45.9183 58.6509C45.2223 58.66 45.2223 58.66 44.5122 58.6694C44.0818 58.6668 43.6515 58.6642 43.2081 58.6615C42.8291 58.6627 42.4501 58.6639 42.0597 58.6651C41.0909 58.4554 41.0909 58.4554 40.2692 57.7269C39.8182 56.759 39.8182 56.759 40.1629 55.5928C40.3291 55.2779 40.4954 54.963 40.6667 54.6386Z" fill="#435349"/>
<path d="M40.6667 61.4241C41.6195 61.2682 41.6195 61.2682 42.8203 61.2729C43.4934 61.271 43.4934 61.271 44.1801 61.2691C44.6662 61.2743 45.1523 61.2795 45.6532 61.2849C46.3985 61.2861 46.3985 61.2861 47.1588 61.2873C48.2105 61.2902 49.2622 61.2961 50.3139 61.3048C51.9303 61.318 53.5465 61.3222 55.163 61.3247C56.1824 61.3286 57.2019 61.333 58.2213 61.338C58.9518 61.3407 58.9518 61.3407 59.697 61.3434C60.3681 61.3495 60.3681 61.3495 61.0528 61.3558C61.6467 61.3601 61.6467 61.3601 62.2526 61.3645C63.1515 61.4241 63.1515 61.4241 63.5758 61.8482C63.6288 63.1205 63.6288 63.1205 63.5758 64.3928C63.1515 64.8169 63.1515 64.8169 62.2469 64.8679C61.8484 64.8669 61.4499 64.866 61.0393 64.865C60.5892 64.865 60.139 64.865 59.6753 64.8649C58.9408 64.8616 58.9408 64.8616 58.1915 64.8583C57.693 64.8577 57.1946 64.8571 56.681 64.8565C55.0815 64.8541 53.482 64.8488 51.8826 64.8434C50.8012 64.8412 49.7199 64.8393 48.6386 64.8376C45.9813 64.8329 43.324 64.8258 40.6667 64.8169C40.1894 63.8361 40.1894 63.8361 39.8182 62.6964C40.0982 62.2765 40.3782 61.8567 40.6667 61.4241Z" fill="#3B4C41"/>
<path d="M213.758 63.9687C214.038 63.9687 214.318 63.9687 214.606 63.9687C215.173 65.2316 215.738 66.4952 216.303 67.759C216.465 68.1196 216.627 68.4801 216.794 68.8516C216.947 69.1946 217.1 69.5377 217.258 69.8911C217.4 70.2087 217.542 70.5263 217.688 70.8535C218 71.6024 218 71.6024 218 72.0265C215.62 72.0265 213.24 72.0265 210.788 72.0265C211.167 70.132 211.736 68.5505 212.511 66.8048C212.631 66.5312 212.75 66.2576 212.873 65.9757C213.166 65.3059 213.462 64.6371 213.758 63.9687Z" fill="#F7F7F7"/>
</svg>
