<svg version="1.1" id="Layer_1" xmlns="http://www.w3.org/2000/svg" xmlns:xlink="http://www.w3.org/1999/xlink" x="0px" y="0px"
	 width="100%" viewBox="0 0 726 830" enable-background="new 0 0 726 830" xml:space="preserve">
<path fill="#FFFFFF" opacity="1.000000" stroke="none" 
	d="
M325.000000,831.000000 
	C216.666672,831.000000 108.833336,831.000000 1.000000,831.000000 
	C1.000000,554.333313 1.000000,277.666656 1.000000,1.000000 
	C243.000000,1.000000 485.000000,1.000000 727.000000,1.000000 
	C727.000000,277.666656 727.000000,554.333313 727.000000,831.000000 
	C593.166687,831.000000 459.333344,831.000000 325.000000,831.000000 
M487.500000,544.000000 
	C546.824524,544.000000 606.149170,543.954651 665.473328,544.093811 
	C669.802063,544.104004 671.110168,543.079163 671.102295,538.578064 
	C670.961304,458.256683 670.954712,377.934906 671.112610,297.613586 
	C671.122070,292.806671 669.557739,291.913544 665.165161,291.915710 
	C468.527222,292.013092 271.889191,291.998779 75.251175,292.004089 
	C66.383942,292.004333 65.027542,293.400360 65.000298,302.341919 
	C64.998779,302.841858 65.000023,303.341766 65.000023,303.841705 
	C65.000015,380.330566 64.999832,456.819427 65.000244,533.308289 
	C65.000298,542.653931 66.329247,543.999695 75.559875,543.999695 
	C212.539917,544.000122 349.519958,544.000000 487.500000,544.000000 
z"/>
<path fill="#EDE8DC" opacity="1.000000" stroke="none" 
	d="
M487.000000,544.000000 
	C349.519958,544.000000 212.539917,544.000122 75.559875,543.999695 
	C66.329247,543.999695 65.000298,542.653931 65.000244,533.308289 
	C64.999832,456.819427 65.000015,380.330566 65.000023,303.841705 
	C65.000023,303.341766 64.998779,302.841858 65.000298,302.341919 
	C65.027542,293.400360 66.383942,292.004333 75.251175,292.004089 
	C271.889191,291.998779 468.527222,292.013092 665.165161,291.915710 
	C669.557739,291.913544 671.122070,292.806671 671.112610,297.613586 
	C670.954712,377.934906 670.961304,458.256683 671.102295,538.578064 
	C671.110168,543.079163 669.802063,544.104004 665.473328,544.093811 
	C606.149170,543.954651 546.824524,544.000000 487.000000,544.000000 
M419.831665,407.998688 
	C417.575073,404.240692 414.446381,402.360901 409.894897,402.934845 
	C407.598969,403.224365 405.219208,403.165680 402.907928,402.944733 
	C399.082916,402.579102 396.333130,404.040070 393.715332,406.804657 
	C390.039154,410.686981 385.907623,414.138153 382.202911,417.559418 
	C382.257904,401.089172 381.204529,403.014130 365.423309,403.044983 
	C360.340424,403.054901 358.207001,405.378693 358.043182,410.461243 
	C357.928650,414.015045 358.021118,417.575531 358.021118,421.133026 
	C350.194458,408.687775 339.733734,402.123108 324.971008,401.856720 
	C310.108673,401.588562 299.008942,407.434357 291.041473,420.597839 
	C283.856384,409.113953 274.409760,402.547791 261.112915,401.910004 
	C248.290466,401.295013 237.237701,404.677338 227.875214,415.919373 
	C227.875214,404.192108 228.255402,394.083069 227.733353,384.020782 
	C227.417526,377.933228 229.010223,373.697632 234.811996,371.363770 
	C249.540176,380.458221 271.389709,382.250671 285.133606,369.171906 
	C290.503754,364.061615 295.173645,358.210388 300.105164,352.645844 
	C304.164185,348.065826 308.283722,343.525696 312.078796,338.732269 
	C313.587952,336.826111 315.478546,334.026855 315.057648,332.101471 
	C314.571899,329.879425 312.044952,327.030090 309.855499,326.418823 
	C286.027924,319.766327 262.195770,319.755676 238.836533,328.402130 
	C225.536377,333.325165 215.841415,342.173767 212.407761,356.642151 
	C210.651535,364.042419 210.585861,364.029694 202.943420,364.030334 
	C180.452225,364.032166 157.960831,363.977783 135.469940,364.059479 
	C126.996384,364.090271 119.558907,366.782349 113.506683,373.053375 
	C107.457886,379.320862 105.191269,386.952332 105.155899,395.321777 
	C105.048904,420.643890 105.116982,445.966736 105.120926,471.289307 
	C105.123558,488.240570 117.342194,501.498413 134.276810,501.752014 
	C160.427383,502.143646 186.588837,501.960968 212.743958,501.776886 
	C218.523788,501.736206 224.353165,500.266052 226.671432,494.067108 
	C229.168915,487.388947 227.915649,481.246429 221.850922,476.747253 
	C218.707947,474.415619 219.220215,471.316895 220.804993,468.824036 
	C223.240082,464.993683 226.399658,461.623901 229.445007,457.817200 
	C237.314499,467.560333 248.507751,470.706573 261.359924,470.073486 
	C274.610870,469.420746 284.007477,462.719696 291.083374,451.353882 
	C299.025726,464.571869 310.010132,470.305542 324.707306,470.145813 
	C339.628143,469.983643 350.189423,463.318512 358.016357,449.357544 
	C358.016357,451.714447 358.039429,452.497925 358.012939,453.279663 
	C357.442230,470.109650 359.158722,469.120605 374.156647,469.001953 
	C380.058228,468.955261 381.943756,467.064728 382.040497,461.256470 
	C382.090546,458.252838 382.049316,455.247650 382.049316,452.243134 
	C382.544250,452.145691 383.039215,452.048248 383.534149,451.950806 
	C384.551117,453.188446 385.641449,454.373444 386.573242,455.672150 
	C393.028168,464.668762 400.344360,472.114502 412.818054,468.917633 
	C415.636322,468.195374 418.152069,466.292603 421.428680,465.304016 
	C423.411469,468.829498 426.236328,470.162842 430.442841,470.102539 
	C447.182220,469.862457 463.927002,470.003632 480.669800,470.003632 
	C497.660065,470.003632 514.650330,470.005035 531.640625,470.002991 
	C538.468811,470.002197 540.384888,468.970398 542.602966,462.357605 
	C543.787292,458.827087 545.532593,457.490387 549.084900,457.942810 
	C550.723999,458.151581 552.453979,458.218719 554.069946,457.935272 
	C560.029724,456.889893 563.460327,459.333801 564.954041,465.108765 
	C565.860657,468.614014 568.315491,470.095245 572.021667,470.045807 
	C581.621521,469.917725 591.224487,470.035614 600.825806,469.989441 
	C605.789795,469.965576 608.743469,467.066254 608.960022,461.997437 
	C609.087830,459.004547 609.134583,455.992371 608.945068,453.006195 
	C608.753296,449.983978 609.856140,448.833923 612.939392,448.953033 
	C617.929016,449.145874 622.989197,449.444855 627.903870,448.807434 
	C630.259705,448.501862 633.780334,446.524292 634.263489,444.655121 
	C635.264526,440.783051 635.062256,436.396088 634.379089,432.387115 
	C634.082520,430.646759 631.577942,428.398193 629.722351,427.990387 
	C625.733337,427.113800 621.517456,427.223419 617.389404,427.042908 
	C614.792603,426.929382 612.186890,427.021729 609.585144,427.021729 
	C609.605652,426.340576 609.626099,425.659424 609.646606,424.978271 
	C615.373108,424.978271 621.099670,424.990601 626.826111,424.975525 
	C636.291260,424.950592 638.011841,423.268860 638.015320,414.089508 
	C638.015747,412.923492 638.026306,411.757385 638.013000,410.591522 
	C637.947754,404.883484 636.206848,403.026947 630.652588,403.009644 
	C617.826660,402.969696 605.000549,402.969513 592.174622,403.010956 
	C587.190613,403.027039 584.174744,405.912811 584.045288,410.991516 
	C583.892578,416.984222 584.007874,422.983765 584.007446,428.980347 
	C584.007019,434.652954 584.007324,440.325562 584.007324,445.998138 
	C582.544373,444.933228 581.851135,443.825806 581.311707,442.647980 
	C576.053711,431.167114 570.925781,419.625214 565.537476,408.206085 
	C562.878479,402.571045 546.879028,400.438141 542.606201,404.956665 
	C542.045593,405.549469 541.522705,406.236237 541.184509,406.972382 
	C536.260254,417.692505 531.255249,428.377808 526.508606,439.176483 
	C522.638855,447.980225 522.780151,448.037659 513.541443,448.023224 
	C507.756989,448.014160 501.972504,448.021576 496.188049,448.021576 
	C501.340576,446.976532 506.476837,447.074951 511.607819,446.952179 
	C518.390930,446.789917 521.143799,444.143799 520.924194,437.483795 
	C520.782104,433.175476 519.889282,428.891876 519.285583,424.232117 
	C523.112671,423.588257 524.449585,420.424896 524.045532,416.021057 
	C523.863647,414.038849 524.048645,412.025452 524.007019,410.027466 
	C523.903320,405.046387 522.009094,403.038208 517.087830,403.016632 
	C504.095459,402.959656 491.102600,402.967987 478.110168,403.012085 
	C473.168121,403.028839 470.197327,405.961517 470.038635,411.056030 
	C469.898651,415.549133 470.007660,420.049988 470.007446,424.547424 
	C470.007111,432.495361 470.007324,440.443298 470.007324,448.021484 
	C463.257294,448.021484 457.124084,447.811249 451.014160,448.097565 
	C447.126282,448.279785 445.787109,447.133453 445.893219,443.083893 
	C446.168060,432.597076 445.954865,422.098145 446.000153,411.604309 
	C446.016968,407.708832 444.462830,403.702240 440.892181,403.436249 
	C433.839203,402.910858 425.812042,400.294373 419.831665,407.998688 
z"/>
<path fill="#A9B992" opacity="1.000000" stroke="none" 
	d="
M420.807068,464.933258 
	C418.152069,466.292603 415.636322,468.195374 412.818054,468.917633 
	C400.344360,472.114502 393.028168,464.668762 386.573242,455.672150 
	C385.641449,454.373444 384.551117,453.188446 383.534149,451.950806 
	C383.039215,452.048248 382.544250,452.145691 382.049316,452.243134 
	C382.049316,455.247650 382.090546,458.252838 382.040497,461.256470 
	C381.943756,467.064728 380.058228,468.955261 374.156647,469.001953 
	C359.158722,469.120605 357.442230,470.109650 358.012939,453.279663 
	C358.039429,452.497925 358.016357,451.714447 358.016357,449.357544 
	C350.189423,463.318512 339.628143,469.983643 324.707306,470.145813 
	C310.010132,470.305542 299.025726,464.571869 291.083374,451.353882 
	C284.007477,462.719696 274.610870,469.420746 261.359924,470.073486 
	C248.507751,470.706573 237.314499,467.560333 229.445007,457.817200 
	C226.399658,461.623901 223.240082,464.993683 220.804993,468.824036 
	C219.220215,471.316895 218.707947,474.415619 221.850922,476.747253 
	C227.915649,481.246429 229.168915,487.388947 226.671432,494.067108 
	C224.353165,500.266052 218.523788,501.736206 212.743958,501.776886 
	C186.588837,501.960968 160.427383,502.143646 134.276810,501.752014 
	C117.342194,501.498413 105.123558,488.240570 105.120926,471.289307 
	C105.116982,445.966736 105.048904,420.643890 105.155899,395.321777 
	C105.191269,386.952332 107.457886,379.320862 113.506683,373.053375 
	C119.558907,366.782349 126.996384,364.090271 135.469940,364.059479 
	C157.960831,363.977783 180.452225,364.032166 202.943420,364.030334 
	C210.585861,364.029694 210.651535,364.042419 212.407761,356.642151 
	C215.841415,342.173767 225.536377,333.325165 238.836533,328.402130 
	C262.195770,319.755676 286.027924,319.766327 309.855499,326.418823 
	C312.044952,327.030090 314.571899,329.879425 315.057648,332.101471 
	C315.478546,334.026855 313.587952,336.826111 312.078796,338.732269 
	C308.283722,343.525696 304.164185,348.065826 300.105164,352.645844 
	C295.173645,358.210388 290.503754,364.061615 285.133606,369.171906 
	C271.389709,382.250671 249.540176,380.458221 234.811996,371.363770 
	C229.010223,373.697632 227.417526,377.933228 227.733353,384.020782 
	C228.255402,394.083069 227.875214,404.192108 227.875214,415.919373 
	C237.237701,404.677338 248.290466,401.295013 261.112915,401.910004 
	C274.409760,402.547791 283.856384,409.113953 291.041473,420.597839 
	C299.008942,407.434357 310.108673,401.588562 324.971008,401.856720 
	C339.733734,402.123108 350.194458,408.687775 358.021118,421.133026 
	C358.021118,417.575531 357.928650,414.015045 358.043182,410.461243 
	C358.207001,405.378693 360.340424,403.054901 365.423309,403.044983 
	C381.204529,403.014130 382.257904,401.089172 382.202911,417.559418 
	C385.907623,414.138153 390.039154,410.686981 393.715332,406.804657 
	C396.333130,404.040070 399.082916,402.579102 402.907928,402.944733 
	C405.219208,403.165680 407.598969,403.224365 409.894897,402.934845 
	C414.446381,402.360901 417.575073,404.240692 420.216705,408.355469 
	C420.620667,409.335205 420.639557,409.958221 420.342285,410.717224 
	C413.381348,418.595825 406.736572,426.338409 400.020996,434.163452 
	C401.761047,436.312927 403.374390,438.408051 405.094360,440.411591 
	C410.262207,446.431488 415.471649,452.415680 420.683838,458.820618 
	C420.737549,461.129333 420.772308,463.031311 420.807068,464.933258 
M117.528732,378.076447 
	C115.612862,382.760712 112.131638,387.414459 112.039536,392.134308 
	C111.509842,419.277100 111.620201,446.436981 111.861511,473.587982 
	C111.962433,484.942230 121.649330,494.948578 132.848175,495.072723 
	C159.833832,495.371948 186.824936,495.181366 213.813843,495.180267 
	C217.639236,495.180115 220.296570,493.378082 221.030014,489.606995 
	C221.782730,485.736664 220.171127,483.017303 216.520813,481.108032 
	C215.041840,480.334473 213.680328,478.236298 213.384628,476.545166 
	C212.875854,473.635376 212.972687,470.536774 213.358246,467.588409 
	C213.552124,466.105774 214.647812,463.947479 215.838776,463.530029 
	C220.323853,461.958038 221.281906,458.842621 221.265930,454.580627 
	C221.172852,429.757782 221.397736,404.932068 221.072144,380.113129 
	C221.006424,375.103119 222.841553,372.151428 226.507095,369.340485 
	C241.631638,357.742004 258.533173,349.733826 276.622131,344.050629 
	C279.039520,343.291168 281.489044,342.634033 283.923676,341.929535 
	C283.943726,342.064301 283.963776,342.199066 283.983826,342.333832 
	C269.855194,350.500854 255.726578,358.667847 240.880417,367.249634 
	C254.054550,374.386230 270.903473,374.056946 279.755341,365.448212 
	C290.031647,355.454163 298.964233,344.078369 308.806000,332.933197 
	C307.379150,332.298218 306.831970,331.948059 306.235077,331.804504 
	C282.845551,326.178497 259.689850,326.055817 237.336044,335.960846 
	C226.887222,340.590759 219.936081,348.657562 218.093018,360.387695 
	C217.058945,366.968964 213.571869,370.073151 206.941254,370.078491 
	C184.283844,370.096710 161.626221,370.140228 138.969101,370.056244 
	C131.019989,370.026794 123.795883,371.710693 117.528732,378.076447 
M259.362427,463.991058 
	C278.553467,463.305389 290.274780,449.007538 287.062164,430.202454 
	C284.531555,415.389435 270.202362,405.909302 253.627014,408.081909 
	C236.240021,410.360931 226.061600,424.046753 228.889282,441.344025 
	C231.177277,455.339813 242.434570,463.963257 259.362427,463.991058 
M346.064484,416.437592 
	C339.204895,409.582672 330.669006,407.644012 321.347565,408.011475 
	C308.137115,408.532288 297.239838,417.540100 294.980499,429.805267 
	C292.367035,443.992828 298.391937,456.131256 310.698975,461.473511 
	C323.894104,467.201263 340.412323,463.466095 348.351135,452.959442 
	C356.161530,442.622803 355.420105,427.592499 346.064484,416.437592 
M373.285431,409.019562 
	C370.351318,409.019562 367.417206,409.019562 364.511169,409.019562 
	C364.511169,427.386841 364.511169,445.062622 364.511169,462.606934 
	C368.540619,462.606934 372.118256,462.606934 376.012787,462.606934 
	C376.086975,454.860840 374.264923,446.556152 384.027954,442.935699 
	C387.985443,447.508331 392.697937,451.716370 395.846344,456.878387 
	C400.675018,464.795197 407.462341,463.071075 415.151917,462.599304 
	C407.020111,452.600983 399.393524,443.223846 391.583710,433.621460 
	C398.927277,425.584717 406.072174,417.765381 413.406982,409.738251 
	C404.579529,407.456970 398.104218,409.283051 393.333313,416.165375 
	C391.925079,418.196869 390.126221,419.993134 388.329773,421.712708 
	C384.340820,425.531067 380.240204,429.232758 376.037994,433.118011 
	C376.037994,426.299225 376.135773,419.644409 375.955383,412.997131 
	C375.919373,411.669006 374.821808,410.369629 373.285431,409.019562 
z"/>
<path fill="#FDFDFC" opacity="1.000000" stroke="none" 
	d="
M421.117859,465.118652 
	C420.772308,463.031311 420.737549,461.129333 420.798645,458.320984 
	C420.815826,441.803436 420.737152,426.192322 420.658447,410.581207 
	C420.639557,409.958221 420.620667,409.335205 420.544922,408.404053 
	C425.812042,400.294373 433.839203,402.910858 440.892181,403.436249 
	C444.462830,403.702240 446.016968,407.708832 446.000153,411.604309 
	C445.954865,422.098145 446.168060,432.597076 445.893219,443.083893 
	C445.787109,447.133453 447.126282,448.279785 451.014160,448.097565 
	C457.124084,447.811249 463.257294,448.021484 470.007324,448.021484 
	C470.007324,440.443298 470.007111,432.495361 470.007446,424.547424 
	C470.007660,420.049988 469.898651,415.549133 470.038635,411.056030 
	C470.197327,405.961517 473.168121,403.028839 478.110168,403.012085 
	C491.102600,402.967987 504.095459,402.959656 517.087830,403.016632 
	C522.009094,403.038208 523.903320,405.046387 524.007019,410.027466 
	C524.048645,412.025452 523.863647,414.038849 524.045532,416.021057 
	C524.449585,420.424896 523.112671,423.588257 519.285583,424.232117 
	C519.889282,428.891876 520.782104,433.175476 520.924194,437.483795 
	C521.143799,444.143799 518.390930,446.789917 511.607819,446.952179 
	C506.476837,447.074951 501.340576,446.976532 496.188049,448.021576 
	C501.972504,448.021576 507.756989,448.014160 513.541443,448.023224 
	C522.780151,448.037659 522.638855,447.980225 526.508606,439.176483 
	C531.255249,428.377808 536.260254,417.692505 541.184509,406.972382 
	C541.522705,406.236237 542.045593,405.549469 542.606201,404.956665 
	C546.879028,400.438141 562.878479,402.571045 565.537476,408.206085 
	C570.925781,419.625214 576.053711,431.167114 581.311707,442.647980 
	C581.851135,443.825806 582.544373,444.933228 584.007324,445.998138 
	C584.007324,440.325562 584.007019,434.652954 584.007446,428.980347 
	C584.007874,422.983765 583.892578,416.984222 584.045288,410.991516 
	C584.174744,405.912811 587.190613,403.027039 592.174622,403.010956 
	C605.000549,402.969513 617.826660,402.969696 630.652588,403.009644 
	C636.206848,403.026947 637.947754,404.883484 638.013000,410.591522 
	C638.026306,411.757385 638.015747,412.923492 638.015320,414.089508 
	C638.011841,423.268860 636.291260,424.950592 626.826111,424.975525 
	C621.099670,424.990601 615.373108,424.978271 609.646606,424.978271 
	C609.626099,425.659424 609.605652,426.340576 609.585144,427.021729 
	C612.186890,427.021729 614.792603,426.929382 617.389404,427.042908 
	C621.517456,427.223419 625.733337,427.113800 629.722351,427.990387 
	C631.577942,428.398193 634.082520,430.646759 634.379089,432.387115 
	C635.062256,436.396088 635.264526,440.783051 634.263489,444.655121 
	C633.780334,446.524292 630.259705,448.501862 627.903870,448.807434 
	C622.989197,449.444855 617.929016,449.145874 612.939392,448.953033 
	C609.856140,448.833923 608.753296,449.983978 608.945068,453.006195 
	C609.134583,455.992371 609.087830,459.004547 608.960022,461.997437 
	C608.743469,467.066254 605.789795,469.965576 600.825806,469.989441 
	C591.224487,470.035614 581.621521,469.917725 572.021667,470.045807 
	C568.315491,470.095245 565.860657,468.614014 564.954041,465.108765 
	C563.460327,459.333801 560.029724,456.889893 554.069946,457.935272 
	C552.453979,458.218719 550.723999,458.151581 549.084900,457.942810 
	C545.532593,457.490387 543.787292,458.827087 542.602966,462.357605 
	C540.384888,468.970398 538.468811,470.002197 531.640625,470.002991 
	C514.650330,470.005035 497.660065,470.003632 480.669800,470.003632 
	C463.927002,470.003632 447.182220,469.862457 430.442841,470.102539 
	C426.236328,470.162842 423.411469,468.829498 421.117859,465.118652 
M476.129333,459.306854 
	C476.236786,460.745819 476.344208,462.184784 476.456543,463.689148 
	C490.776154,463.689148 504.682831,463.689148 518.709656,463.689148 
	C518.709656,460.660889 518.709656,457.950134 518.709656,454.804657 
	C511.195160,454.804657 504.061920,454.854584 496.929626,454.792328 
	C487.535278,454.710327 489.183197,455.997070 488.694031,446.509399 
	C488.440338,441.587860 489.618927,439.650909 494.933655,440.071899 
	C501.466736,440.589355 508.071991,440.195374 514.628235,440.195374 
	C514.628235,436.686188 514.628235,434.098145 514.628235,430.881836 
	C505.944336,430.881836 497.550293,430.881836 489.247559,430.881836 
	C489.247559,426.359375 489.247559,422.483215 489.247559,417.943542 
	C499.067078,417.943542 508.448395,417.943542 517.773743,417.943542 
	C517.773743,414.670654 517.773743,412.078583 517.773743,409.458801 
	C503.763885,409.458801 490.083130,409.458801 476.129425,409.458801 
	C476.129425,426.058289 476.129425,442.201935 476.129333,459.306854 
M570.128479,461.542786 
	C573.885010,466.537994 578.640564,463.011230 583.320435,463.895325 
	C583.015015,462.383545 583.001770,461.699860 582.743042,461.127014 
	C575.280396,444.600403 567.787354,428.087524 560.313599,411.565918 
	C558.244690,406.992401 554.190613,409.686401 551.063599,409.031677 
	C548.440674,408.482452 546.890137,409.576416 545.739929,412.183472 
	C539.898193,425.424591 533.831909,438.566559 527.857056,451.749023 
	C526.114319,455.594025 524.413757,459.458130 522.390259,463.993927 
	C526.393311,463.993927 529.403564,464.242065 532.339050,463.881744 
	C533.663757,463.719177 535.733459,462.526184 535.943665,461.491608 
	C537.894531,451.888489 544.139221,449.699524 552.763245,451.180756 
	C553.410583,451.291962 554.115723,451.306335 554.756653,451.178558 
	C562.875916,449.559631 568.091736,452.452209 570.128479,461.542786 
M623.372925,433.804535 
	C617.706299,433.803253 612.033936,433.936829 606.377747,433.693359 
	C605.164490,433.641144 603.063965,432.304504 602.989136,431.422363 
	C602.630798,427.198090 602.828369,422.926697 602.828369,418.013794 
	C612.981934,418.013794 622.370422,418.013794 631.808594,418.013794 
	C631.808594,414.741211 631.808594,412.149200 631.808594,409.434998 
	C617.825500,409.434998 604.135742,409.434998 590.500000,409.434998 
	C590.500000,427.782623 590.500000,445.694275 590.500000,463.735901 
	C594.635681,463.735901 598.398682,463.735901 602.883118,463.735901 
	C602.883118,456.786591 602.883118,450.081177 602.883118,442.917206 
	C611.860291,442.917206 620.120911,442.917206 628.581543,442.917206 
	C628.581543,439.711517 628.581543,436.996643 628.581543,434.084900 
	C626.940613,433.976471 625.638611,433.890442 623.372925,433.804535 
M467.999298,461.326447 
	C467.999298,459.246582 467.999298,457.166687 467.999298,454.612976 
	C458.228607,454.612976 449.301788,454.612976 439.777100,454.612976 
	C439.777100,439.261536 439.777100,424.379547 439.777100,409.369415 
	C435.286041,409.369415 431.414246,409.369415 427.404846,409.369415 
	C427.404846,427.636108 427.404846,445.524872 427.404846,463.912537 
	C440.609955,463.912537 453.534485,463.931213 466.458282,463.842377 
	C466.961945,463.838898 467.458527,462.805450 467.999298,461.326447 
z"/>
<path fill="#FEFEFE" opacity="1.000000" stroke="none" 
	d="
M117.743912,377.782684 
	C123.795883,371.710693 131.019989,370.026794 138.969101,370.056244 
	C161.626221,370.140228 184.283844,370.096710 206.941254,370.078491 
	C213.571869,370.073151 217.058945,366.968964 218.093018,360.387695 
	C219.936081,348.657562 226.887222,340.590759 237.336044,335.960846 
	C259.689850,326.055817 282.845551,326.178497 306.235077,331.804504 
	C306.831970,331.948059 307.379150,332.298218 308.806000,332.933197 
	C298.964233,344.078369 290.031647,355.454163 279.755341,365.448212 
	C270.903473,374.056946 254.054550,374.386230 240.880417,367.249634 
	C255.726578,358.667847 269.855194,350.500854 283.983826,342.333832 
	C283.963776,342.199066 283.943726,342.064301 283.923676,341.929535 
	C281.489044,342.634033 279.039520,343.291168 276.622131,344.050629 
	C258.533173,349.733826 241.631638,357.742004 226.507095,369.340485 
	C222.841553,372.151428 221.006424,375.103119 221.072144,380.113129 
	C221.397736,404.932068 221.172852,429.757782 221.265930,454.580627 
	C221.281906,458.842621 220.323853,461.958038 215.838776,463.530029 
	C214.647812,463.947479 213.552124,466.105774 213.358246,467.588409 
	C212.972687,470.536774 212.875854,473.635376 213.384628,476.545166 
	C213.680328,478.236298 215.041840,480.334473 216.520813,481.108032 
	C220.171127,483.017303 221.782730,485.736664 221.030014,489.606995 
	C220.296570,493.378082 217.639236,495.180115 213.813843,495.180267 
	C186.824936,495.181366 159.833832,495.371948 132.848175,495.072723 
	C121.649330,494.948578 111.962433,484.942230 111.861511,473.587982 
	C111.620201,446.436981 111.509842,419.277100 112.039536,392.134308 
	C112.131638,387.414459 115.612862,382.760712 117.743912,377.782684 
M197.081100,464.082642 
	C176.432922,464.064056 155.784698,464.019287 135.136581,464.046753 
	C130.478088,464.052948 126.580925,467.583405 126.304810,471.764679 
	C126.003975,476.320404 129.683334,480.704254 134.470444,480.735413 
	C154.785217,480.867737 175.101517,480.831818 195.416336,480.706207 
	C196.521881,480.699402 198.559738,479.332703 198.566833,478.583954 
	C198.611710,473.840881 198.206375,469.093567 197.081100,464.082642 
M192.022141,425.782776 
	C195.480316,425.652863 198.420334,424.953949 198.075485,420.468536 
	C197.741577,416.125580 194.574768,416.313324 191.511398,416.313080 
	C179.544891,416.312195 167.578400,416.307892 155.611893,416.314117 
	C152.620743,416.315674 149.521545,415.886993 146.679428,416.547943 
	C144.999329,416.938660 142.670563,418.997345 142.559402,420.453003 
	C142.442810,421.980194 144.344940,424.086029 145.899460,425.177551 
	C147.073151,426.001678 149.088318,425.760132 150.729599,425.764618 
	C164.191803,425.801483 177.654160,425.784851 192.022141,425.782776 
M158.513474,409.879028 
	C169.986893,409.878418 181.460327,409.878143 192.933746,409.877014 
	C196.035858,409.876740 198.002075,408.710052 198.094528,405.247375 
	C198.193863,401.526672 196.012466,400.903229 192.940567,400.914886 
	C177.809174,400.972382 162.677277,400.983734 147.546005,400.912262 
	C144.556519,400.898163 142.471954,402.032898 142.445724,405.015381 
	C142.419037,408.051575 144.279816,409.881866 147.544037,409.872925 
	C150.869614,409.863800 154.195267,409.876007 158.513474,409.879028 
z"/>
<path fill="#FDFEFD" opacity="1.000000" stroke="none" 
	d="
M258.907959,463.991089 
	C242.434570,463.963257 231.177277,455.339813 228.889282,441.344025 
	C226.061600,424.046753 236.240021,410.360931 253.627014,408.081909 
	C270.202362,405.909302 284.531555,415.389435 287.062164,430.202454 
	C290.274780,449.007538 278.553467,463.305389 258.907959,463.991089 
M275.770721,437.305176 
	C275.447723,435.182098 275.349792,432.994385 274.761597,430.947510 
	C272.572205,423.328674 265.341583,417.892548 257.787354,417.995209 
	C250.215210,418.098083 243.215088,423.699005 241.097778,431.348816 
	C238.844131,439.491272 242.198151,448.114441 249.317352,452.481232 
	C256.000763,456.580719 264.305573,455.964722 269.771515,449.844849 
	C272.587067,446.692505 273.754272,442.067871 275.770721,437.305176 
z"/>
<path fill="#FDFEFD" opacity="1.000000" stroke="none" 
	d="
M346.319794,416.696228 
	C355.420105,427.592499 356.161530,442.622803 348.351135,452.959442 
	C340.412323,463.466095 323.894104,467.201263 310.698975,461.473511 
	C298.391937,456.131256 292.367035,443.992828 294.980499,429.805267 
	C297.239838,417.540100 308.137115,408.532288 321.347565,408.011475 
	C330.669006,407.644012 339.204895,409.582672 346.319794,416.696228 
M338.079193,425.546478 
	C331.746002,417.404633 322.521240,415.678345 314.378601,421.111328 
	C306.699982,426.234680 304.180542,436.957642 308.671234,445.401825 
	C313.060120,453.654510 322.451599,457.065826 330.700317,453.516846 
	C339.262756,449.832855 345.787109,437.561615 338.079193,425.546478 
z"/>
<path fill="#FEFEFE" opacity="1.000000" stroke="none" 
	d="
M373.749573,409.038269 
	C374.821808,410.369629 375.919373,411.669006 375.955383,412.997131 
	C376.135773,419.644409 376.037994,426.299225 376.037994,433.118011 
	C380.240204,429.232758 384.340820,425.531067 388.329773,421.712708 
	C390.126221,419.993134 391.925079,418.196869 393.333313,416.165375 
	C398.104218,409.283051 404.579529,407.456970 413.406982,409.738251 
	C406.072174,417.765381 398.927277,425.584717 391.583710,433.621460 
	C399.393524,443.223846 407.020111,452.600983 415.151917,462.599304 
	C407.462341,463.071075 400.675018,464.795197 395.846344,456.878387 
	C392.697937,451.716370 387.985443,447.508331 384.027954,442.935699 
	C374.264923,446.556152 376.086975,454.860840 376.012787,462.606934 
	C372.118256,462.606934 368.540619,462.606934 364.511169,462.606934 
	C364.511169,445.062622 364.511169,427.386841 364.511169,409.019562 
	C367.417206,409.019562 370.351318,409.019562 373.749573,409.038269 
z"/>
<path fill="#EDE8DC" opacity="1.000000" stroke="none" 
	d="
M420.342285,410.717224 
	C420.737152,426.192322 420.815826,441.803436 420.779663,457.914185 
	C415.471649,452.415680 410.262207,446.431488 405.094360,440.411591 
	C403.374390,438.408051 401.761047,436.312927 400.020996,434.163452 
	C406.736572,426.338409 413.381348,418.595825 420.342285,410.717224 
z"/>
<path fill="#A7B78F" opacity="1.000000" stroke="none" 
	d="
M476.129395,458.826233 
	C476.129425,442.201935 476.129425,426.058289 476.129425,409.458801 
	C490.083130,409.458801 503.763885,409.458801 517.773743,409.458801 
	C517.773743,412.078583 517.773743,414.670654 517.773743,417.943542 
	C508.448395,417.943542 499.067078,417.943542 489.247559,417.943542 
	C489.247559,422.483215 489.247559,426.359375 489.247559,430.881836 
	C497.550293,430.881836 505.944336,430.881836 514.628235,430.881836 
	C514.628235,434.098145 514.628235,436.686188 514.628235,440.195374 
	C508.071991,440.195374 501.466736,440.589355 494.933655,440.071899 
	C489.618927,439.650909 488.440338,441.587860 488.694031,446.509399 
	C489.183197,455.997070 487.535278,454.710327 496.929626,454.792328 
	C504.061920,454.854584 511.195160,454.804657 518.709656,454.804657 
	C518.709656,457.950134 518.709656,460.660889 518.709656,463.689148 
	C504.682831,463.689148 490.776154,463.689148 476.456543,463.689148 
	C476.344208,462.184784 476.236786,460.745819 476.129395,458.826233 
z"/>
<path fill="#A7B78F" opacity="1.000000" stroke="none" 
	d="
M569.983032,461.172577 
	C568.091736,452.452209 562.875916,449.559631 554.756653,451.178558 
	C554.115723,451.306335 553.410583,451.291962 552.763245,451.180756 
	C544.139221,449.699524 537.894531,451.888489 535.943665,461.491608 
	C535.733459,462.526184 533.663757,463.719177 532.339050,463.881744 
	C529.403564,464.242065 526.393311,463.993927 522.390259,463.993927 
	C524.413757,459.458130 526.114319,455.594025 527.857056,451.749023 
	C533.831909,438.566559 539.898193,425.424591 545.739929,412.183472 
	C546.890137,409.576416 548.440674,408.482452 551.063599,409.031677 
	C554.190613,409.686401 558.244690,406.992401 560.313599,411.565918 
	C567.787354,428.087524 575.280396,444.600403 582.743042,461.127014 
	C583.001770,461.699860 583.015015,462.383545 583.320435,463.895325 
	C578.640564,463.011230 573.885010,466.537994 569.983032,461.172577 
M559.095337,435.506378 
	C557.200928,431.428406 555.306519,427.350464 552.998291,422.381683 
	C549.899658,429.449432 547.297302,435.385193 544.532288,441.691895 
	C550.625610,441.691895 555.696350,441.691895 561.401978,441.691895 
	C560.621826,439.553833 560.014587,437.889496 559.095337,435.506378 
z"/>
<path fill="#A7B78F" opacity="1.000000" stroke="none" 
	d="
M623.854736,433.804443 
	C625.638611,433.890442 626.940613,433.976471 628.581543,434.084900 
	C628.581543,436.996643 628.581543,439.711517 628.581543,442.917206 
	C620.120911,442.917206 611.860291,442.917206 602.883118,442.917206 
	C602.883118,450.081177 602.883118,456.786591 602.883118,463.735901 
	C598.398682,463.735901 594.635681,463.735901 590.500000,463.735901 
	C590.500000,445.694275 590.500000,427.782623 590.500000,409.434998 
	C604.135742,409.434998 617.825500,409.434998 631.808594,409.434998 
	C631.808594,412.149200 631.808594,414.741211 631.808594,418.013794 
	C622.370422,418.013794 612.981934,418.013794 602.828369,418.013794 
	C602.828369,422.926697 602.630798,427.198090 602.989136,431.422363 
	C603.063965,432.304504 605.164490,433.641144 606.377747,433.693359 
	C612.033936,433.936829 617.706299,433.803253 623.854736,433.804443 
z"/>
<path fill="#A9B992" opacity="1.000000" stroke="none" 
	d="
M467.978851,461.789185 
	C467.458527,462.805450 466.961945,463.838898 466.458282,463.842377 
	C453.534485,463.931213 440.609955,463.912537 427.404846,463.912537 
	C427.404846,445.524872 427.404846,427.636108 427.404846,409.369415 
	C431.414246,409.369415 435.286041,409.369415 439.777100,409.369415 
	C439.777100,424.379547 439.777100,439.261536 439.777100,454.612976 
	C449.301788,454.612976 458.228607,454.612976 467.999298,454.612976 
	C467.999298,457.166687 467.999298,459.246582 467.978851,461.789185 
z"/>
<path fill="#AABA93" opacity="1.000000" stroke="none" 
	d="
M197.515335,464.215149 
	C198.206375,469.093567 198.611710,473.840881 198.566833,478.583954 
	C198.559738,479.332703 196.521881,480.699402 195.416336,480.706207 
	C175.101517,480.831818 154.785217,480.867737 134.470444,480.735413 
	C129.683334,480.704254 126.003975,476.320404 126.304810,471.764679 
	C126.580925,467.583405 130.478088,464.052948 135.136581,464.046753 
	C155.784698,464.019287 176.432922,464.064056 197.515335,464.215149 
M148.508179,474.900970 
	C161.968216,474.900665 175.429062,474.965515 188.887009,474.798248 
	C190.219330,474.781677 191.534027,473.346344 192.856918,472.569519 
	C191.594376,471.721802 190.338577,470.147766 189.068283,470.135956 
	C171.621597,469.973877 154.172546,469.983185 136.725433,470.121063 
	C135.487747,470.130859 134.260605,471.474823 133.028564,472.198425 
	C134.201080,473.094910 135.310211,474.643341 136.558075,474.764679 
	C140.180038,475.116791 143.857651,474.896484 148.508179,474.900970 
z"/>
<path fill="#AABA93" opacity="1.000000" stroke="none" 
	d="
M191.569305,425.783630 
	C177.654160,425.784851 164.191803,425.801483 150.729599,425.764618 
	C149.088318,425.760132 147.073151,426.001678 145.899460,425.177551 
	C144.344940,424.086029 142.442810,421.980194 142.559402,420.453003 
	C142.670563,418.997345 144.999329,416.938660 146.679428,416.547943 
	C149.521545,415.886993 152.620743,416.315674 155.611893,416.314117 
	C167.578400,416.307892 179.544891,416.312195 191.511398,416.313080 
	C194.574768,416.313324 197.741577,416.125580 198.075485,420.468536 
	C198.420334,424.953949 195.480316,425.652863 191.569305,425.783630 
z"/>
<path fill="#A9B992" opacity="1.000000" stroke="none" 
	d="
M158.017181,409.878967 
	C154.195267,409.876007 150.869614,409.863800 147.544037,409.872925 
	C144.279816,409.881866 142.419037,408.051575 142.445724,405.015381 
	C142.471954,402.032898 144.556519,400.898163 147.546005,400.912262 
	C162.677277,400.983734 177.809174,400.972382 192.940567,400.914886 
	C196.012466,400.903229 198.193863,401.526672 198.094528,405.247375 
	C198.002075,408.710052 196.035858,409.876740 192.933746,409.877014 
	C181.460327,409.878143 169.986893,409.878418 158.017181,409.878967 
z"/>
<path fill="#A9B992" opacity="1.000000" stroke="none" 
	d="
M275.718506,437.706848 
	C273.754272,442.067871 272.587067,446.692505 269.771515,449.844849 
	C264.305573,455.964722 256.000763,456.580719 249.317352,452.481232 
	C242.198151,448.114441 238.844131,439.491272 241.097778,431.348816 
	C243.215088,423.699005 250.215210,418.098083 257.787354,417.995209 
	C265.341583,417.892548 272.572205,423.328674 274.761597,430.947510 
	C275.349792,432.994385 275.447723,435.182098 275.718506,437.706848 
M258.388702,424.024323 
	C256.210541,424.708435 253.805984,425.012604 251.897690,426.149658 
	C246.689178,429.253052 246.173508,434.454102 247.050522,439.716980 
	C247.823212,444.353668 250.880203,448.014221 255.563522,448.138824 
	C259.123566,448.233551 263.761322,447.187439 266.141663,444.843445 
	C273.155823,437.936371 269.352264,427.444275 258.388702,424.024323 
z"/>
<path fill="#A9B992" opacity="1.000000" stroke="none" 
	d="
M338.299500,425.843689 
	C345.787109,437.561615 339.262756,449.832855 330.700317,453.516846 
	C322.451599,457.065826 313.060120,453.654510 308.671234,445.401825 
	C304.180542,436.957642 306.699982,426.234680 314.378601,421.111328 
	C322.521240,415.678345 331.746002,417.404633 338.299500,425.843689 
M319.848236,425.039642 
	C313.168945,428.814026 310.613403,436.131561 313.825897,442.284058 
	C316.778564,447.938965 322.799988,450.174408 328.503479,447.733032 
	C334.017517,445.372772 336.796356,438.535492 334.852661,432.111053 
	C333.114777,426.366882 327.017242,423.216705 319.848236,425.039642 
z"/>
<path fill="#FDFDFC" opacity="1.000000" stroke="none" 
	d="
M559.251343,435.865784 
	C560.014587,437.889496 560.621826,439.553833 561.401978,441.691895 
	C555.696350,441.691895 550.625610,441.691895 544.532288,441.691895 
	C547.297302,435.385193 549.899658,429.449432 552.998291,422.381683 
	C555.306519,427.350464 557.200928,431.428406 559.251343,435.865784 
z"/>
<path fill="#E4E2D2" opacity="1.000000" stroke="none" 
	d="
M148.010803,474.900879 
	C143.857651,474.896484 140.180038,475.116791 136.558075,474.764679 
	C135.310211,474.643341 134.201080,473.094910 133.028564,472.198425 
	C134.260605,471.474823 135.487747,470.130859 136.725433,470.121063 
	C154.172546,469.983185 171.621597,469.973877 189.068283,470.135956 
	C190.338577,470.147766 191.594376,471.721802 192.856903,472.569519 
	C191.534027,473.346344 190.219330,474.781677 188.887009,474.798248 
	C175.429062,474.965515 161.968216,474.900665 148.010803,474.900879 
z"/>
<path fill="#EDE8DC" opacity="1.000000" stroke="none" 
	d="
M258.784302,424.040466 
	C269.352264,427.444275 273.155823,437.936371 266.141663,444.843445 
	C263.761322,447.187439 259.123566,448.233551 255.563522,448.138824 
	C250.880203,448.014221 247.823212,444.353668 247.050522,439.716980 
	C246.173508,434.454102 246.689178,429.253052 251.897690,426.149658 
	C253.805984,425.012604 256.210541,424.708435 258.784302,424.040466 
z"/>
<path fill="#EDE8DC" opacity="1.000000" stroke="none" 
	d="
M320.204254,424.883392 
	C327.017242,423.216705 333.114777,426.366882 334.852661,432.111053 
	C336.796356,438.535492 334.017517,445.372772 328.503479,447.733032 
	C322.799988,450.174408 316.778564,447.938965 313.825897,442.284058 
	C310.613403,436.131561 313.168945,428.814026 320.204254,424.883392 
z"/>
</svg>