<svg xmlns="http://www.w3.org/2000/svg" version="1.1" viewBox="302.49 324.53 211.63 181.05">
<path d="M0 0 C2.2712864 -0.00434742 4.54058218 -0.04069861 6.81152344 -0.07861328 C17.33685667 -0.16225415 30.69341089 -0.19411901 39.11279297 6.82226562 C41.17089844 9.37060547 41.17089844 9.37060547 41.29589844 12.43310547 C40.17089844 15.37060547 40.17089844 15.37060547 37.98730469 17.05029297 C34.31292334 20.0774532 31.78957974 23.61339454 28.98339844 27.43310547 C18.97723142 40.74017376 9.18751899 53.40449208 -7.82910156 57.37060547 C-19.41095205 58.86009826 -29.3742799 55.61211837 -40.04003906 51.52294922 C-41.94109412 51.20984046 -41.94109412 51.20984046 -43.90977478 52.35708618 C-46.78343183 55.37177026 -46.3769469 58.48705004 -46.32739258 62.43457031 C-46.33291138 63.25603043 -46.33843018 64.07749054 -46.34411621 64.92384338 C-46.35344436 66.70807886 -46.35353464 68.49238091 -46.34552193 70.27662277 C-46.33291926 73.10139038 -46.34415661 75.92517685 -46.36155701 78.74990845 C-46.38830107 83.72930645 -46.39385122 88.70846519 -46.39245605 93.68792725 C-46.39023063 101.6512772 -46.40433648 109.61433037 -46.44804192 117.57756424 C-46.45788391 120.35902713 -46.44915989 123.1400249 -46.43934631 125.92147827 C-46.44549138 127.63027246 -46.4524034 129.33906413 -46.46020508 131.04785156 C-46.45248581 131.81997482 -46.44476654 132.59209808 -46.43681335 133.38761902 C-46.47922366 137.89218167 -47.03921221 140.79040129 -49.82910156 144.37060547 C-50.53035156 144.82435547 -51.23160156 145.27810547 -51.95410156 145.74560547 C-54.78051488 148.19516368 -54.5577713 150.77547946 -54.82910156 154.37060547 C-53.93191406 154.77279297 -53.93191406 154.77279297 -53.01660156 155.18310547 C-49.51821619 157.08222896 -48.09564703 158.57096908 -46.82910156 162.37060547 C-46.41292517 166.64441693 -46.35263434 170.27473086 -48.07910156 174.24560547 C-50.70574864 177.4351055 -52.90629752 179.06300412 -56.82910156 180.37060547 C-59.61022383 180.4875879 -62.3672129 180.54871039 -65.14916992 180.56347656 C-65.99840027 180.57165405 -66.84763062 180.57983154 -67.72259521 180.58825684 C-70.53803815 180.61309968 -73.35343044 180.62963015 -76.16894531 180.64404297 C-77.61519885 180.65202848 -77.61519885 180.65202848 -79.09066963 180.66017532 C-84.20081919 180.68691081 -89.31094436 180.70627852 -94.42114258 180.72070312 C-98.63555794 180.73400446 -102.84948476 180.76178607 -107.0637207 180.80273438 C-112.16361446 180.852284 -117.26306744 180.87685239 -122.3631916 180.88393021 C-124.29870984 180.89060884 -126.23421956 180.90574158 -128.16959953 180.92982101 C-140.71287854 181.07689023 -151.94728731 180.89629216 -161.82910156 172.05810547 C-168.05325496 165.12045156 -169.97666786 157.872107 -170.00610352 148.72753906 C-170.01267471 147.84422913 -170.01924591 146.96091919 -170.02601624 146.05084229 C-170.04574727 143.12357497 -170.05741321 140.19635904 -170.06738281 137.26904297 C-170.07145834 136.26803181 -170.07553387 135.26702065 -170.07973289 134.23567581 C-170.10059569 128.93446306 -170.11489488 123.63327618 -170.12426758 118.33203125 C-170.13531497 112.86793062 -170.16969515 107.40423913 -170.20943928 101.94028282 C-170.23564497 97.72965766 -170.24396308 93.51912925 -170.24754906 89.30842972 C-170.25240705 87.2950935 -170.26399847 85.28176137 -170.28258705 83.2685051 C-170.30705594 80.44202507 -170.305999 77.6165936 -170.29907227 74.79003906 C-170.31188232 73.96684174 -170.32469238 73.14364441 -170.33789062 72.29550171 C-170.25841541 63.34356138 -166.64637673 56.55429823 -160.62207031 50.09326172 C-154.12016701 43.84633501 -147.52564455 42.07763069 -138.71240234 42.05175781 C-137.92148697 42.04171219 -137.13057159 42.03166656 -136.31568909 42.02131653 C-133.71860436 41.99058841 -131.12162223 41.97347845 -128.52441406 41.95654297 C-126.71694055 41.93782296 -124.9094757 41.91824893 -123.10202026 41.89785767 C-118.35759599 41.84661844 -113.61314341 41.80694884 -108.86859131 41.76971436 C-104.02202397 41.72962317 -99.17557356 41.67855419 -94.32910156 41.62841797 C-84.8291838 41.53175591 -75.32919989 41.44732009 -65.82910156 41.37060547 C-65.34698089 40.09275324 -64.86559603 38.81462338 -64.38452148 37.53637695 C-63.98229622 36.46878395 -63.98229622 36.46878395 -63.57194519 35.37962341 C-63.00110273 33.83578201 -62.46427213 32.27933152 -61.94238281 30.71826172 C-58.07337924 19.67744665 -50.15221097 12.54506406 -39.82910156 7.37060547 C-34.91096211 5.40647563 -29.95579807 3.71085242 -24.82910156 2.37060547 C-24.13977539 2.18369141 -23.45044922 1.99677734 -22.74023438 1.80419922 C-15.22941609 0.02272601 -7.67482725 -0.00163642 0 0 Z M-141.82910156 149.37060547 C-141.49910156 150.36060547 -141.16910156 151.35060547 -140.82910156 152.37060547 C-121.68910156 152.37060547 -102.54910156 152.37060547 -82.82910156 152.37060547 C-82.82910156 151.38060547 -82.82910156 150.39060547 -82.82910156 149.37060547 C-102.29910156 149.37060547 -121.76910156 149.37060547 -141.82910156 149.37060547 Z " fill="#FDFEFD" transform="translate(472.8291015625,324.62939453125)"/>
<path d="M0 0 C2.2712864 -0.00434742 4.54058218 -0.04069861 6.81152344 -0.07861328 C17.33685667 -0.16225415 30.69341089 -0.19411901 39.11279297 6.82226562 C41.17089844 9.37060547 41.17089844 9.37060547 41.29589844 12.43310547 C40.17089844 15.37060547 40.17089844 15.37060547 37.98730469 17.05029297 C34.31292334 20.0774532 31.78957974 23.61339454 28.98339844 27.43310547 C18.97723142 40.74017376 9.18751899 53.40449208 -7.82910156 57.37060547 C-19.41095205 58.86009826 -29.3742799 55.61211837 -40.04003906 51.52294922 C-41.94109412 51.20984046 -41.94109412 51.20984046 -43.90977478 52.35708618 C-46.78343183 55.37177026 -46.3769469 58.48705004 -46.32739258 62.43457031 C-46.33291138 63.25603043 -46.33843018 64.07749054 -46.34411621 64.92384338 C-46.35344436 66.70807886 -46.35353464 68.49238091 -46.34552193 70.27662277 C-46.33291926 73.10139038 -46.34415661 75.92517685 -46.36155701 78.74990845 C-46.38830107 83.72930645 -46.39385122 88.70846519 -46.39245605 93.68792725 C-46.39023063 101.6512772 -46.40433648 109.61433037 -46.44804192 117.57756424 C-46.45788391 120.35902713 -46.44915989 123.1400249 -46.43934631 125.92147827 C-46.44549138 127.63027246 -46.4524034 129.33906413 -46.46020508 131.04785156 C-46.45248581 131.81997482 -46.44476654 132.59209808 -46.43681335 133.38761902 C-46.47922366 137.89218167 -47.03921221 140.79040129 -49.82910156 144.37060547 C-50.53035156 144.82435547 -51.23160156 145.27810547 -51.95410156 145.74560547 C-54.78051488 148.19516368 -54.5577713 150.77547946 -54.82910156 154.37060547 C-53.93191406 154.77279297 -53.93191406 154.77279297 -53.01660156 155.18310547 C-49.51821619 157.08222896 -48.09564703 158.57096908 -46.82910156 162.37060547 C-46.41292517 166.64441693 -46.35263434 170.27473086 -48.07910156 174.24560547 C-50.70574864 177.4351055 -52.90629752 179.06300412 -56.82910156 180.37060547 C-59.61022383 180.4875879 -62.3672129 180.54871039 -65.14916992 180.56347656 C-65.99840027 180.57165405 -66.84763062 180.57983154 -67.72259521 180.58825684 C-70.53803815 180.61309968 -73.35343044 180.62963015 -76.16894531 180.64404297 C-77.61519885 180.65202848 -77.61519885 180.65202848 -79.09066963 180.66017532 C-84.20081919 180.68691081 -89.31094436 180.70627852 -94.42114258 180.72070312 C-98.63555794 180.73400446 -102.84948476 180.76178607 -107.0637207 180.80273438 C-112.16361446 180.852284 -117.26306744 180.87685239 -122.3631916 180.88393021 C-124.29870984 180.89060884 -126.23421956 180.90574158 -128.16959953 180.92982101 C-140.71287854 181.07689023 -151.94728731 180.89629216 -161.82910156 172.05810547 C-168.05325496 165.12045156 -169.97666786 157.872107 -170.00610352 148.72753906 C-170.01267471 147.84422913 -170.01924591 146.96091919 -170.02601624 146.05084229 C-170.04574727 143.12357497 -170.05741321 140.19635904 -170.06738281 137.26904297 C-170.07145834 136.26803181 -170.07553387 135.26702065 -170.07973289 134.23567581 C-170.10059569 128.93446306 -170.11489488 123.63327618 -170.12426758 118.33203125 C-170.13531497 112.86793062 -170.16969515 107.40423913 -170.20943928 101.94028282 C-170.23564497 97.72965766 -170.24396308 93.51912925 -170.24754906 89.30842972 C-170.25240705 87.2950935 -170.26399847 85.28176137 -170.28258705 83.2685051 C-170.30705594 80.44202507 -170.305999 77.6165936 -170.29907227 74.79003906 C-170.31188232 73.96684174 -170.32469238 73.14364441 -170.33789062 72.29550171 C-170.25841541 63.34356138 -166.64637673 56.55429823 -160.62207031 50.09326172 C-154.12016701 43.84633501 -147.52564455 42.07763069 -138.71240234 42.05175781 C-137.92148697 42.04171219 -137.13057159 42.03166656 -136.31568909 42.02131653 C-133.71860436 41.99058841 -131.12162223 41.97347845 -128.52441406 41.95654297 C-126.71694055 41.93782296 -124.9094757 41.91824893 -123.10202026 41.89785767 C-118.35759599 41.84661844 -113.61314341 41.80694884 -108.86859131 41.76971436 C-104.02202397 41.72962317 -99.17557356 41.67855419 -94.32910156 41.62841797 C-84.8291838 41.53175591 -75.32919989 41.44732009 -65.82910156 41.37060547 C-65.34698089 40.09275324 -64.86559603 38.81462338 -64.38452148 37.53637695 C-63.98229622 36.46878395 -63.98229622 36.46878395 -63.57194519 35.37962341 C-63.00110273 33.83578201 -62.46427213 32.27933152 -61.94238281 30.71826172 C-58.07337924 19.67744665 -50.15221097 12.54506406 -39.82910156 7.37060547 C-34.91096211 5.40647563 -29.95579807 3.71085242 -24.82910156 2.37060547 C-24.13977539 2.18369141 -23.45044922 1.99677734 -22.74023438 1.80419922 C-15.22941609 0.02272601 -7.67482725 -0.00163642 0 0 Z M-49.36816406 21.51513672 C-53.51176513 26.77773166 -56.92368322 33.11740565 -57.39160156 39.87060547 C-57.82910156 43.37060547 -57.82910156 43.37060547 -59.87091064 45.55821228 C-63.52011915 47.79397083 -66.44725787 47.92538057 -70.59765625 47.86889648 C-71.36421539 47.87441528 -72.13077454 47.87993408 -72.92056274 47.88562012 C-74.57979526 47.89492207 -76.23909918 47.89506017 -77.89833832 47.88702583 C-80.53115786 47.8743666 -83.16293332 47.88571368 -85.79571533 47.90306091 C-90.44146892 47.92975868 -95.08696608 47.9353572 -99.73278809 47.93395996 C-107.15378581 47.9317321 -114.57446432 47.9460469 -121.99533844 47.98954582 C-124.57720458 47.99932695 -127.15856235 47.9906944 -129.74041748 47.98085022 C-143.97738101 47.9064767 -143.97738101 47.9064767 -156.20410156 54.62060547 C-156.83058594 55.16201172 -157.45707031 55.70341797 -158.10253906 56.26123047 C-162.69956527 61.87750683 -163.27178914 67.41281126 -163.2331543 74.3918457 C-163.24001755 75.26759247 -163.2468808 76.14333923 -163.25395203 77.04562378 C-163.27216569 79.92364993 -163.26839031 82.80112813 -163.26269531 85.67919922 C-163.26725969 87.6902738 -163.27256602 89.70134683 -163.27857971 91.7124176 C-163.28750013 95.92121733 -163.28509978 100.1298272 -163.27514648 104.33862305 C-163.26365777 109.71981607 -163.28387249 115.10035278 -163.31306362 120.48145962 C-163.33145011 124.63287995 -163.33112827 128.78414371 -163.3254261 132.93559456 C-163.32527319 134.91903669 -163.33129251 136.90248964 -163.34371758 138.88589287 C-163.35867219 141.66433217 -163.34791788 144.44156787 -163.33081055 147.2199707 C-163.34047852 148.03112839 -163.35014648 148.84228607 -163.36010742 149.67802429 C-163.26906743 156.77457506 -161.03533975 161.88858751 -156.32910156 167.18310547 C-149.90951038 172.80024775 -145.8631658 173.51910673 -137.36035156 173.54760742 C-136.08164185 173.55746422 -136.08164185 173.55746422 -134.77709961 173.56752014 C-131.96109933 173.58720404 -129.14515213 173.59890168 -126.32910156 173.60888672 C-124.88579468 173.61500001 -124.88579468 173.61500001 -123.41333008 173.6212368 C-118.32536027 173.64207155 -113.23741727 173.65638733 -108.14941406 173.66577148 C-102.8899877 173.67686088 -97.6309815 173.71129722 -92.3717041 173.75094318 C-88.32941893 173.77704847 -84.28723511 173.78545764 -80.24487305 173.78905296 C-78.30555365 173.79393074 -76.36623913 173.80557847 -74.42700195 173.82409096 C-71.71694187 173.84836437 -69.0079864 173.84753977 -66.29785156 173.84057617 C-65.49565186 173.85338623 -64.69345215 173.86619629 -63.86694336 173.87939453 C-60.32697952 173.84618449 -58.2378656 173.66734802 -55.33496094 171.5599823 C-53.10697413 168.32070061 -53.21331699 166.20215392 -53.82910156 162.37060547 C-56.07201569 159.85856157 -56.07201569 159.85856157 -58.82910156 158.37060547 C-59.48910156 158.37060547 -60.14910156 158.37060547 -60.82910156 158.37060547 C-60.82910156 153.09060547 -60.82910156 147.81060547 -60.82910156 142.37060547 C-59.50910156 142.04060547 -58.18910156 141.71060547 -56.82910156 141.37060547 C-54.949873 140.39624852 -54.949873 140.39624852 -53.82910156 138.37060547 C-53.57631384 135.59514362 -53.50472864 133.04946869 -53.57128906 130.27832031 C-53.58250542 129.04113754 -53.58250542 129.04113754 -53.59394836 127.77896118 C-53.61095553 125.9864584 -53.63420924 124.1940066 -53.66293335 122.40165329 C-53.70442916 119.55910194 -53.72070023 116.71749624 -53.72875977 113.87466431 C-53.7526601 105.79178194 -53.79354507 97.70991398 -53.92138672 89.62792969 C-53.99776869 84.6831761 -54.0201473 79.74063271 -54.00811768 74.79533768 C-54.01373468 72.91583242 -54.03929616 71.03627195 -54.08563232 69.15732956 C-54.43640594 54.47005833 -54.43640594 54.47005833 -50.4453125 49.25691223 C-47.67276892 46.95354237 -44.96764443 45.1309826 -41.82910156 43.37060547 C-40.44983276 42.44857399 -39.07373051 41.52174032 -37.70410156 40.58544922 C-36.42029786 39.81311135 -35.12845799 39.05398119 -33.82910156 38.30810547 C-32.76622925 37.69104736 -32.76622925 37.69104736 -31.68188477 37.06152344 C-3.90635591 21.37060547 -3.90635591 21.37060547 8.17089844 21.37060547 C7.56318604 21.67651611 6.95547363 21.98242676 6.3293457 22.29760742 C-4.23613549 27.64254474 -14.73531116 33.0259248 -24.70410156 39.43310547 C-25.41622803 39.88532471 -26.12835449 40.33754395 -26.86206055 40.8034668 C-30.79271329 43.3009906 -30.79271329 43.3009906 -32.82910156 47.37060547 C-23.47535027 51.37935602 -12.0996126 52.32725947 -2.39160156 48.80810547 C9.30903709 43.11327636 16.35639173 33.40184928 24.17089844 23.37060547 C25.72840412 21.3873892 27.29213836 19.40944091 28.85839844 17.43310547 C29.76138672 16.27488281 29.76138672 16.27488281 30.68261719 15.09326172 C32.17089844 13.37060547 32.17089844 13.37060547 34.17089844 12.37060547 C34.17089844 11.71060547 34.17089844 11.05060547 34.17089844 10.37060547 C32.54919582 9.88039498 30.92326148 9.40418425 29.29589844 8.93310547 C28.39097656 8.66626953 27.48605469 8.39943359 26.55371094 8.12451172 C2.90687232 2.85448879 -30.61461132 3.76113882 -49.36816406 21.51513672 Z " fill="#A8B891" transform="translate(472.8291015625,324.62939453125)"/>
<path d="M0 0 C0.6638269 -0.00058411 1.32765381 -0.00116821 2.01159668 -0.00177002 C4.19804832 0.00100891 6.38312356 0.03208829 8.56933594 0.06347656 C10.08818822 0.07093972 11.60705016 0.0766323 13.12591553 0.08062744 C17.11774419 0.09587815 21.10898791 0.13515434 25.10058594 0.17944336 C29.17602628 0.22040867 33.25156142 0.2386411 37.32714844 0.25878906 C45.3196339 0.30164998 53.31153219 0.37199446 61.30371094 0.45410156 C61.30371094 6.06410156 61.30371094 11.67410156 61.30371094 17.45410156 C52.65437601 17.5671443 44.0055331 17.65884068 35.35562611 17.71316242 C31.33893665 17.73923663 27.32277955 17.77459334 23.30639648 17.83129883 C19.42897513 17.88569865 15.55206518 17.91553848 11.67429161 17.92848778 C10.1962752 17.93771358 8.71828623 17.95573014 7.24048805 17.98275185 C5.1669572 18.01915244 3.0955284 18.02404295 1.02172852 18.02172852 C-0.15741623 18.03283157 -1.33656097 18.04393463 -2.55143738 18.05537415 C-6.62860945 17.27584874 -8.10940807 15.62220619 -10.69628906 12.45410156 C-11.60367048 9.42761821 -11.16062039 7.70442086 -10.69628906 4.45410156 C-7.59199809 0.19561958 -5.11982324 -0.03792462 0 0 Z M-4.69628906 7.45410156 C-4.36628906 8.44410156 -4.03628906 9.43410156 -3.69628906 10.45410156 C15.44371094 10.45410156 34.58371094 10.45410156 54.30371094 10.45410156 C54.30371094 9.46410156 54.30371094 8.47410156 54.30371094 7.45410156 C34.83371094 7.45410156 15.36371094 7.45410156 -4.69628906 7.45410156 Z " fill="#A9B992" transform="translate(335.6962890625,466.5458984375)"/>
<path d="M0 0 C7.52969652 -0.02526648 15.0593822 -0.04283141 22.58911133 -0.05493164 C25.15291757 -0.0599737 27.71672091 -0.06680714 30.28051758 -0.07543945 C33.95655021 -0.08751064 37.63254498 -0.09322942 41.30859375 -0.09765625 C42.46274277 -0.10281754 43.61689178 -0.10797882 44.80601501 -0.11329651 C46.3975515 -0.11340981 46.3975515 -0.11340981 48.02124023 -0.11352539 C48.96055893 -0.115746 49.89987762 -0.11796661 50.86766052 -0.12025452 C53 0 53 0 54 1 C54.1875 3.9375 54.1875 3.9375 54 7 C51.48138293 9.51861707 50.62482206 9.26075193 47.13891602 9.29052734 C46.1276918 9.30328705 45.11646759 9.31604675 44.07460022 9.32919312 C42.97877121 9.33141876 41.8829422 9.33364441 40.75390625 9.3359375 C39.07082619 9.3459227 39.07082619 9.3459227 37.35374451 9.35610962 C34.97730147 9.36624899 32.60082988 9.37092624 30.22436523 9.37060547 C26.5807422 9.37497811 22.93833035 9.41128454 19.29492188 9.44921875 C16.98958749 9.4550866 14.68424733 9.4590562 12.37890625 9.4609375 C10.73819908 9.48249405 10.73819908 9.48249405 9.06434631 9.50448608 C8.04996994 9.49833282 7.03559357 9.49217957 5.99047852 9.48583984 C5.09716324 9.48868988 4.20384796 9.49153992 3.28346252 9.49447632 C1 9 1 9 -0.93690491 7.28213501 C-2 5 -2 5 -1.1875 2.25 C-0.795625 1.5075 -0.40375 0.765 0 0 Z " fill="#A9B992" transform="translate(342,404)"/>
<path d="M0 0 C2.24586487 -0.36749268 2.24586487 -0.36749268 5.07641602 -0.35644531 C6.66299767 -0.36094696 6.66299767 -0.36094696 8.28163147 -0.36553955 C9.42748215 -0.35319275 10.57333282 -0.34084595 11.75390625 -0.328125 C13.51068947 -0.32531525 13.51068947 -0.32531525 15.30296326 -0.32244873 C17.78200115 -0.31571718 20.26102822 -0.30178103 22.73999023 -0.28125 C26.55006696 -0.25010164 30.35973048 -0.24028189 34.16992188 -0.234375 C36.57292175 -0.22520535 38.97591739 -0.2148297 41.37890625 -0.203125 C43.10071861 -0.19675018 43.10071861 -0.19675018 44.85731506 -0.19024658 C46.43916847 -0.17583527 46.43916847 -0.17583527 48.05297852 -0.16113281 C49.45290794 -0.15089081 49.45290794 -0.15089081 50.88111877 -0.14044189 C53 0 53 0 54 1 C54.125 4 54.125 4 54 7 C53 8 53 8 50.86766052 8.12025452 C49.92834183 8.11803391 48.98902313 8.11581329 48.02124023 8.11352539 C46.96021591 8.11344986 45.89919159 8.11337433 44.80601501 8.11329651 C43.07479149 8.10555458 43.07479149 8.10555458 41.30859375 8.09765625 C40.13361832 8.0962413 38.95864288 8.09482635 37.74806213 8.09336853 C33.97784936 8.08774992 30.20769496 8.07519426 26.4375 8.0625 C23.88867273 8.0574874 21.33984453 8.05292408 18.79101562 8.04882812 C12.52732367 8.03777444 6.26366601 8.02101821 0 8 C-1.125 5.6875 -1.125 5.6875 -2 3 C-1.34 2.01 -0.68 1.02 0 0 Z " fill="#A5B68D" transform="translate(342,420)"/>
</svg>