<svg xmlns="http://www.w3.org/2000/svg" version="1.1" viewBox="103.49 320.53 534.88 181.05">
<path d="M0 0 C2.2712864 -0.00434742 4.54058218 -0.04069861 6.81152344 -0.07861328 C17.33685667 -0.16225415 30.69341089 -0.19411901 39.11279297 6.82226562 C41.17089844 9.37060547 41.17089844 9.37060547 41.29589844 12.43310547 C40.17089844 15.37060547 40.17089844 15.37060547 37.98730469 17.05029297 C34.31292334 20.0774532 31.78957974 23.61339454 28.98339844 27.43310547 C18.97723142 40.74017376 9.18751899 53.40449208 -7.82910156 57.37060547 C-19.41095205 58.86009826 -29.3742799 55.61211837 -40.04003906 51.52294922 C-41.93789562 51.21391334 -41.93789562 51.21391334 -43.91650391 52.32324219 C-46.86255774 55.47688113 -46.32312964 58.89046739 -46.21972656 62.97607422 C-46.21123688 64.23488152 -46.21123688 64.23488152 -46.20257568 65.51911926 C-46.18018563 68.1993618 -46.12998609 70.8782671 -46.07910156 73.55810547 C-46.05903988 75.37514345 -46.04078853 77.19220239 -46.02441406 79.00927734 C-45.98031243 83.46356859 -45.91126815 87.91686032 -45.82910156 92.37060547 C-45.39484863 91.89864746 -44.9605957 91.42668945 -44.51318359 90.94042969 C-40.83812274 87.08405653 -37.77076168 84.41379272 -32.70410156 82.49560547 C-31.71152344 82.10630859 -30.71894531 81.71701172 -29.69628906 81.31591797 C-18.82158245 77.73052424 -9.38601089 79.30371557 1.17089844 83.37060547 C6.96550627 86.3225755 11.2607054 91.22979331 15.17089844 96.37060547 C15.17089844 97.03060547 15.17089844 97.69060547 15.17089844 98.37060547 C15.83089844 98.37060547 16.49089844 98.37060547 17.17089844 98.37060547 C17.43128906 97.62810547 17.69167969 96.88560547 17.95996094 96.12060547 C20.97672337 89.2696353 26.62473609 85.29761041 33.35839844 82.43310547 C45.29877055 77.8165789 55.29970617 78.79740791 67.17089844 83.37060547 C73.15863271 86.42096066 79.13114681 92.2911022 82.17089844 98.37060547 C82.20828125 97.39478516 82.24566406 96.41896484 82.28417969 95.41357422 C82.38279297 93.50511719 82.38279297 93.50511719 82.48339844 91.55810547 C82.54140625 90.29353516 82.59941406 89.02896484 82.65917969 87.72607422 C83.17089844 84.37060547 83.17089844 84.37060547 84.46386719 82.48388672 C89.29721248 79.331705 95.63222644 79.91041907 101.17089844 80.37060547 C104.21829885 81.61444237 105.53682265 82.48289937 107.42089844 85.12060547 C108.43183059 88.15340192 108.74440857 91.20869783 109.17089844 94.37060547 C110.52634766 92.98035156 110.52634766 92.98035156 111.90917969 91.56201172 C113.10031943 90.35211387 114.29174035 89.14249279 115.48339844 87.93310547 C116.07830078 87.32144531 116.67320312 86.70978516 117.28613281 86.07958984 C118.15141602 85.20463867 118.15141602 85.20463867 119.03417969 84.31201172 C119.82755737 83.50292358 119.82755737 83.50292358 120.63696289 82.67749023 C123.88070793 79.91387935 127.48136134 80.17641147 131.54589844 80.12060547 C133.228125 80.08193359 133.228125 80.08193359 134.94433594 80.04248047 C138.5252497 80.40664119 140.31941636 81.21436107 143.17089844 83.37060547 C145.17089844 86.37060547 145.17089844 86.37060547 145.23339844 89.12060547 C143.94463517 93.06270487 142.13279321 94.73682428 139.14355469 97.51123047 C134.35590048 102.02395008 130.25532777 107.22725002 126.17089844 112.37060547 C135.25271732 124.23971178 135.25271732 124.23971178 145.17089844 135.37060547 C145.1796978 134.42220039 145.1796978 134.42220039 145.18867493 133.45463562 C145.25251831 126.88474255 145.33691425 120.31534347 145.43334961 113.74584961 C145.4666417 111.29279078 145.49466014 108.83965456 145.51733398 106.38647461 C145.55080073 102.86392169 145.60311358 99.34208082 145.65917969 95.81982422 C145.66556961 94.71974533 145.67195953 93.61966644 145.67854309 92.48625183 C145.70823433 90.9550042 145.70823433 90.9550042 145.73852539 89.39282227 C145.74962845 88.49347458 145.76073151 87.59412689 145.77217102 86.66752625 C146.2479163 83.92693412 146.99746027 83.05072659 149.17089844 81.37060547 C155.00677692 79.25294492 162.09403674 79.58283034 167.79589844 81.74560547 C170.17089844 83.37060547 170.17089844 83.37060547 171.17089844 85.37060547 C171.25801619 88.43302868 171.28638304 91.47247012 171.26855469 94.53466797 C171.26643227 95.89547989 171.26643227 95.89547989 171.26426697 97.28378296 C171.25865939 100.18775702 171.24610562 103.09165462 171.23339844 105.99560547 C171.22838441 107.96175019 171.22382134 109.92789612 171.21972656 111.89404297 C171.20953743 116.71961713 171.1899635 121.54502547 171.17089844 126.37060547 C178.76089844 126.37060547 186.35089844 126.37060547 194.17089844 126.37060547 C194.20828125 123.37353516 194.24566406 120.37646484 194.28417969 117.28857422 C194.33037676 114.38932957 194.38161703 111.49021498 194.43334961 108.59106445 C194.46662554 106.57454312 194.49464912 104.55792805 194.51733398 102.54125977 C194.550831 99.64412447 194.60314388 96.74785029 194.65917969 93.85107422 C194.66556961 92.94785934 194.67195953 92.04464447 194.67854309 91.11405945 C194.70823433 89.85309196 194.70823433 89.85309196 194.73852539 88.56665039 C194.74962845 87.82718674 194.76073151 87.08772308 194.77217102 86.32585144 C195.29075371 83.78286927 196.1129077 82.92367157 198.17089844 81.37060547 C200.89676921 80.41325466 203.43480765 80.23733651 206.30932617 80.20947266 C207.51594154 80.19506134 207.51594154 80.19506134 208.74693298 80.18035889 C209.60742752 80.17610901 210.46792206 80.17185913 211.35449219 80.16748047 C212.24701187 80.1617804 213.13953156 80.15608032 214.05909729 80.15020752 C215.94441549 80.14077429 217.82975005 80.13423021 219.71508789 80.13037109 C222.59453064 80.12065228 225.47326331 80.08960793 228.35253906 80.05810547 C230.18651921 80.05157618 232.02050445 80.04632542 233.85449219 80.04248047 C234.71296249 80.03013367 235.5714328 80.01778687 236.45591736 80.00506592 C241.18070957 80.0226244 244.36004703 80.26071023 248.17089844 83.37060547 C251.14280282 87.82846204 250.67618235 92.14168254 250.17089844 97.37060547 C248.56791193 101.11090732 247.57352146 102.10219012 244.17089844 104.37060547 C244.83089844 105.03060547 245.49089844 105.69060547 246.17089844 106.37060547 C246.4505578 108.88459598 246.58695152 111.22916745 246.60839844 113.74560547 C246.64126953 114.41849609 246.67414063 115.09138672 246.70800781 115.78466797 C246.72949219 117.76904297 246.72949219 117.76904297 246.17089844 121.37060547 C243.64355469 123.84716797 243.64355469 123.84716797 241.17089844 125.37060547 C243.15089844 126.03060547 245.13089844 126.69060547 247.17089844 127.37060547 C247.42234619 126.55744873 247.67379395 125.74429199 247.93286133 124.90649414 C249.38832835 120.74961604 251.14700136 116.79812908 252.97949219 112.79638672 C253.34688004 111.99073776 253.71426788 111.18508881 254.0927887 110.35502625 C254.86692424 108.66081217 255.64274802 106.96736858 256.42016602 105.2746582 C257.6079016 102.68418909 258.78507239 100.08908523 259.96191406 97.49365234 C260.71713098 95.84426948 261.47296908 94.19517088 262.22949219 92.54638672 C262.75463661 91.38385124 262.75463661 91.38385124 263.29039001 90.1978302 C263.79089622 89.11606758 263.79089622 89.11606758 264.30151367 88.01245117 C264.5908226 87.37990921 264.88013153 86.74736725 265.1782074 86.09565735 C267.03659709 82.86623499 268.62022997 81.55416162 272.17089844 80.37060547 C274.12564853 80.22580917 276.08601223 80.14993045 278.04589844 80.12060547 C279.07457031 80.09482422 280.10324219 80.06904297 281.16308594 80.04248047 C284.70504599 80.42887611 286.37296237 81.17288671 289.17089844 83.37060547 C292.36452147 87.74608848 294.65367287 92.25637754 296.84277344 97.17529297 C297.33369476 98.26126266 297.33369476 98.26126266 297.83453369 99.36917114 C298.86834094 101.65909347 299.89472275 103.95225465 300.92089844 106.24560547 C301.62483549 107.8083263 302.32925786 109.37082861 303.03417969 110.93310547 C304.75204016 114.74310224 306.46325392 118.55601963 308.17089844 122.37060547 C308.18548096 121.23518311 308.20006348 120.09976074 308.21508789 118.92993164 C308.27303519 114.71964938 308.35026785 110.50990397 308.43334961 106.30004883 C308.46661584 104.47754628 308.4946425 102.65494028 308.51733398 100.83227539 C308.55084925 98.21309297 308.60316196 95.59485999 308.65917969 92.97607422 C308.66556961 92.16035446 308.67195953 91.3446347 308.67854309 90.50419617 C308.82640152 84.82294933 308.82640152 84.82294933 310.44792175 82.69380188 C313.49012177 80.35747999 316.57437957 80.24567699 320.30932617 80.20947266 C321.51594154 80.19506134 321.51594154 80.19506134 322.74693298 80.18035889 C323.60742752 80.17610901 324.46792206 80.17185913 325.35449219 80.16748047 C326.24701187 80.1617804 327.13953156 80.15608032 328.05909729 80.15020752 C329.94441549 80.14077429 331.82975005 80.13423021 333.71508789 80.13037109 C336.59453064 80.12065228 339.47326331 80.08960793 342.35253906 80.05810547 C344.18651921 80.05157618 346.02050445 80.04632542 347.85449219 80.04248047 C348.71296249 80.03013367 349.5714328 80.01778687 350.45591736 80.00506592 C355.18070957 80.0226244 358.36004703 80.26071023 362.17089844 83.37060547 C365.14305112 87.82883449 364.67546371 92.14147444 364.17089844 97.37060547 C362.85839844 100.49560547 362.85839844 100.49560547 361.17089844 102.37060547 C358.05246594 103.41008297 355.89614257 103.48555385 352.62792969 103.46826172 C351.55478516 103.46503906 350.48164062 103.46181641 349.37597656 103.45849609 C348.25642578 103.45011719 347.136875 103.44173828 345.98339844 103.43310547 C344.85224609 103.42859375 343.72109375 103.42408203 342.55566406 103.41943359 C339.76068917 103.40764045 336.96582024 103.39118197 334.17089844 103.37060547 C334.17089844 104.03060547 334.17089844 104.69060547 334.17089844 105.37060547 C335.08585083 105.33918457 335.08585083 105.33918457 336.01928711 105.30712891 C338.79882137 105.22367686 341.57809164 105.17185536 344.35839844 105.12060547 C345.31810547 105.08708984 346.2778125 105.05357422 347.26660156 105.01904297 C351.5315956 104.96001191 354.44378574 105.01382346 358.31542969 106.91357422 C360.89866273 110.3343186 360.77051064 112.68713549 360.67089844 116.93310547 C360.67347656 117.60535156 360.67605469 118.27759766 360.67871094 118.97021484 C360.62227981 121.81152198 360.49870994 123.88388534 358.88964844 126.27294922 C355.65393505 128.33939345 352.390059 128.4937079 348.62402344 128.46826172 C347.7796875 128.46503906 346.93535156 128.46181641 346.06542969 128.45849609 C345.19273437 128.45011719 344.32003906 128.44173828 343.42089844 128.43310547 C342.08865234 128.42633789 342.08865234 128.42633789 340.72949219 128.41943359 C338.54322515 128.40767947 336.35709665 128.39124796 334.17089844 128.37060547 C334.21730469 129.47919922 334.26371094 130.58779297 334.31152344 131.72998047 C334.34904945 133.19349515 334.38544873 134.65703902 334.42089844 136.12060547 C334.45441406 136.85021484 334.48792969 137.57982422 334.52246094 138.33154297 C334.58719763 141.89206083 334.50152261 143.9269474 332.34277344 146.82373047 C326.98377559 150.64057066 320.27760356 149.5937199 313.97460938 149.61083984 C311.81048059 149.62054011 309.64730425 149.65157314 307.48339844 149.68310547 C306.10059155 149.68963674 304.7177779 149.69488673 303.33496094 149.69873047 C301.45478271 149.71274902 301.45478271 149.71274902 299.53662109 149.72705078 C295.91424265 149.34342446 294.06155905 148.53818821 291.17089844 146.37060547 C289.80761719 144.39794922 289.80761719 144.39794922 288.85839844 142.30810547 C288.53226563 141.61587891 288.20613281 140.92365234 287.87011719 140.21044922 C287.17089844 138.37060547 287.17089844 138.37060547 287.17089844 136.37060547 C281.56089844 136.70060547 275.95089844 137.03060547 270.17089844 137.37060547 C269.57277344 138.62873047 268.97464844 139.88685547 268.35839844 141.18310547 C266.97206795 144.09917994 265.66034615 146.2824793 263.17089844 148.37060547 C260.0485287 149.41139538 257.87640944 149.49740888 254.60131836 149.5 C253.45970749 149.50315216 252.31809662 149.50630432 251.14189148 149.509552 C249.90751846 149.50752777 248.67314545 149.50550354 247.40136719 149.50341797 C246.13247147 149.50437469 244.86357574 149.50533142 243.55622864 149.50631714 C240.86875008 149.50699833 238.18136212 149.50564921 235.49389648 149.50097656 C232.06091488 149.49529668 228.62801176 149.49854888 225.19503307 149.50454903 C221.90964171 149.50904912 218.62425958 149.50588951 215.33886719 149.50341797 C214.11056686 149.5054422 212.88226654 149.50746643 211.616745 149.509552 C209.89014397 149.50482376 209.89014397 149.50482376 208.12866211 149.5 C206.61667488 149.49880661 206.61667488 149.49880661 205.07414246 149.49758911 C202.17089844 149.37060547 202.17089844 149.37060547 198.98603821 148.80001831 C196.10013996 148.14104363 196.10013996 148.14104363 193.17089844 149.37060547 C190.20721677 149.48006485 187.26777588 149.53466506 184.30371094 149.53857422 C183.43197235 149.54190262 182.56023376 149.54523102 181.66207886 149.54866028 C179.81785611 149.55372246 177.97362422 149.55606882 176.12939453 149.5559082 C173.31364769 149.5580917 170.49829456 149.57624659 167.68261719 149.59521484 C165.88964978 149.59814954 164.0966805 149.60013382 162.30371094 149.60107422 C161.46397736 149.60825974 160.62424377 149.61544525 159.75906372 149.62284851 C153.87377183 149.59995073 150.14196462 148.68464959 145.17089844 145.37060547 C144.51089844 146.03060547 143.85089844 146.69060547 143.17089844 147.37060547 C139.75228575 148.57991064 136.33354729 148.57066121 132.73339844 148.62060547 C131.06470703 148.65927734 131.06470703 148.65927734 129.36230469 148.69873047 C123.11970052 148.05689601 120.01187711 144.40492942 115.98339844 139.87060547 C115.12359375 138.91154297 114.26378906 137.95248047 113.37792969 136.96435547 C111.17089844 134.37060547 111.17089844 134.37060547 109.17089844 131.37060547 C109.00654297 132.72605469 109.00654297 132.72605469 108.83886719 134.10888672 C108.60103516 135.878125 108.60103516 135.878125 108.35839844 137.68310547 C108.13216797 139.44074219 108.13216797 139.44074219 107.90136719 141.23388672 C107.16306423 144.40424649 106.77609558 145.52236634 104.17089844 147.37060547 C101.1356845 148.38234345 98.97356764 148.53634061 95.79589844 148.55810547 C94.86003906 148.57228516 93.92417969 148.58646484 92.95996094 148.60107422 C88.8578194 148.26210174 86.0905262 147.29023323 83.17089844 144.37060547 C82.87029901 142.00551186 82.67574832 139.62618666 82.54589844 137.24560547 C82.43375 135.32361328 82.43375 135.32361328 82.31933594 133.36279297 C82.27035156 132.37537109 82.22136719 131.38794922 82.17089844 130.37060547 C81.81898438 130.87849609 81.46707031 131.38638672 81.10449219 131.90966797 C74.04936749 141.74631702 66.3156709 147.34009146 54.17089844 149.37060547 C44.84380198 150.37228308 36.15149069 147.90788831 27.85839844 143.68310547 C23.90605285 140.28224996 20.33004599 136.52400251 17.17089844 132.37060547 C17.17089844 131.71060547 17.17089844 131.05060547 17.17089844 130.37060547 C16.51089844 130.37060547 15.85089844 130.37060547 15.17089844 130.37060547 C14.91050781 131.11310547 14.65011719 131.85560547 14.38183594 132.62060547 C11.3650735 139.47157564 5.71706078 143.44360053 -1.01660156 146.30810547 C-12.93132347 150.91471486 -22.98736078 149.97748591 -34.82910156 145.37060547 C-39.22285618 143.19967553 -42.48179224 139.91481534 -45.82910156 136.37060547 C-46.22097656 137.44310547 -46.61285156 138.51560547 -47.01660156 139.62060547 C-48.23827488 142.54326891 -48.81958299 143.36335322 -51.45410156 145.37060547 C-54.20868364 147.27677727 -54.20868364 147.27677727 -54.64160156 151.12060547 C-54.70347656 152.19310547 -54.76535156 153.26560547 -54.82910156 154.37060547 C-53.93191406 154.77279297 -53.93191406 154.77279297 -53.01660156 155.18310547 C-49.51821619 157.08222896 -48.09564703 158.57096908 -46.82910156 162.37060547 C-46.41292517 166.64441693 -46.35263434 170.27473086 -48.07910156 174.24560547 C-50.70574864 177.4351055 -52.90629752 179.06300412 -56.82910156 180.37060547 C-59.61022383 180.4875879 -62.3672129 180.54871039 -65.14916992 180.56347656 C-65.99840027 180.57165405 -66.84763062 180.57983154 -67.72259521 180.58825684 C-70.53803815 180.61309968 -73.35343044 180.62963015 -76.16894531 180.64404297 C-77.61519885 180.65202848 -77.61519885 180.65202848 -79.09066963 180.66017532 C-84.20081919 180.68691081 -89.31094436 180.70627852 -94.42114258 180.72070312 C-98.63555794 180.73400446 -102.84948476 180.76178607 -107.0637207 180.80273438 C-112.16361446 180.852284 -117.26306744 180.87685239 -122.3631916 180.88393021 C-124.29870984 180.89060884 -126.23421956 180.90574158 -128.16959953 180.92982101 C-140.71287854 181.07689023 -151.94728731 180.89629216 -161.82910156 172.05810547 C-168.05325496 165.12045156 -169.97666786 157.872107 -170.00610352 148.72753906 C-170.01267471 147.84422913 -170.01924591 146.96091919 -170.02601624 146.05084229 C-170.04574727 143.12357497 -170.05741321 140.19635904 -170.06738281 137.26904297 C-170.07145834 136.26803181 -170.07553387 135.26702065 -170.07973289 134.23567581 C-170.10059569 128.93446306 -170.11489488 123.63327618 -170.12426758 118.33203125 C-170.13531497 112.86793062 -170.16969515 107.40423913 -170.20943928 101.94028282 C-170.23564497 97.72965766 -170.24396308 93.51912925 -170.24754906 89.30842972 C-170.25240705 87.2950935 -170.26399847 85.28176137 -170.28258705 83.2685051 C-170.30705594 80.44202507 -170.305999 77.6165936 -170.29907227 74.79003906 C-170.31188232 73.96684174 -170.32469238 73.14364441 -170.33789062 72.29550171 C-170.25841541 63.34356138 -166.64637673 56.55429823 -160.62207031 50.09326172 C-154.12016701 43.84633501 -147.52564455 42.07763069 -138.71240234 42.05175781 C-137.92148697 42.04171219 -137.13057159 42.03166656 -136.31568909 42.02131653 C-133.71860436 41.99058841 -131.12162223 41.97347845 -128.52441406 41.95654297 C-126.71694055 41.93782296 -124.9094757 41.91824893 -123.10202026 41.89785767 C-118.35759599 41.84661844 -113.61314341 41.80694884 -108.86859131 41.76971436 C-104.02202397 41.72962317 -99.17557356 41.67855419 -94.32910156 41.62841797 C-84.8291838 41.53175591 -75.32919989 41.44732009 -65.82910156 41.37060547 C-65.34698089 40.09275324 -64.86559603 38.81462338 -64.38452148 37.53637695 C-63.98229622 36.46878395 -63.98229622 36.46878395 -63.57194519 35.37962341 C-63.00110273 33.83578201 -62.46427213 32.27933152 -61.94238281 30.71826172 C-58.07337924 19.67744665 -50.15221097 12.54506406 -39.82910156 7.37060547 C-34.91096211 5.40647563 -29.95579807 3.71085242 -24.82910156 2.37060547 C-24.13977539 2.18369141 -23.45044922 1.99677734 -22.74023438 1.80419922 C-15.22941609 0.02272601 -7.67482725 -0.00163642 0 0 Z M-26.82910156 108.37060547 C-28.33560932 112.89012874 -28.57474075 116.73019925 -26.57910156 121.12060547 C-23.52108194 125.05234499 -22.03109977 126.21550893 -16.95410156 126.87060547 C-12.17133204 126.7007501 -10.07179521 124.7714793 -6.82910156 121.37060547 C-5.32259381 116.8510822 -5.08346237 113.01101169 -7.07910156 108.62060547 C-10.13712119 104.68886595 -11.62710335 103.52570201 -16.70410156 102.87060547 C-21.48687108 103.04046083 -23.58640791 104.96973164 -26.82910156 108.37060547 Z M39.17089844 108.37060547 C37.66439068 112.89012874 37.42525925 116.73019925 39.42089844 121.12060547 C42.47891806 125.05234499 43.96890023 126.21550893 49.04589844 126.87060547 C53.82866796 126.7007501 55.92820479 124.7714793 59.17089844 121.37060547 C60.67740619 116.8510822 60.91653763 113.01101169 58.92089844 108.62060547 C55.86287881 104.68886595 54.37289665 103.52570201 49.29589844 102.87060547 C44.51312892 103.04046083 42.41359209 104.96973164 39.17089844 108.37060547 Z M-141.82910156 149.37060547 C-141.49910156 150.36060547 -141.16910156 151.35060547 -140.82910156 152.37060547 C-121.68910156 152.37060547 -102.54910156 152.37060547 -82.82910156 152.37060547 C-82.82910156 151.38060547 -82.82910156 150.39060547 -82.82910156 149.37060547 C-102.29910156 149.37060547 -121.76910156 149.37060547 -141.82910156 149.37060547 Z " fill="#3F5045" transform="translate(273.8291015625,320.62939453125)"/>
<path d="M0 0 C0 0.66 0 1.32 0 2 C-0.69480469 2.53238281 -1.38960937 3.06476563 -2.10546875 3.61328125 C-5.85262412 6.70304094 -8.44237634 10.29598603 -11.3125 14.1875 C-12.469182 15.72039148 -13.62802236 17.25165681 -14.7890625 18.78125 C-15.62099121 19.87759766 -15.62099121 19.87759766 -16.46972656 20.99609375 C-23.42600858 30.10540498 -30.65608374 36.93783856 -42 40 C-44.65411484 40.21177911 -47.16360327 40.33268207 -49.8125 40.3125 C-50.51375 40.31121094 -51.215 40.30992187 -51.9375 40.30859375 C-57.53266523 40.2051711 -61.88933176 39.19028639 -67 37 C-65.6066086 33.6211271 -64.22649183 32.18776287 -61.09765625 30.3359375 C-60.29811523 29.85801758 -59.49857422 29.38009766 -58.67480469 28.88769531 C-57.81274414 28.38850586 -56.95068359 27.88931641 -56.0625 27.375 C-55.18110352 26.85518555 -54.29970703 26.33537109 -53.39160156 25.79980469 C-44.42244094 20.56115168 -35.24631091 15.72775173 -26 11 C-47.51891536 15.97864145 -71.127271 26.127271 -87 42 C-87.10385943 44.65635139 -87.14361436 47.28755051 -87.1418457 49.94458008 C-87.14705734 51.19337196 -87.14705734 51.19337196 -87.15237427 52.46739197 C-87.15974524 54.28169392 -87.16508344 56.09600498 -87.16866493 57.91031837 C-87.17580878 60.780594 -87.19145973 63.6506965 -87.21000671 66.5209198 C-87.2625732 74.68392554 -87.310462 82.84683844 -87.32592773 91.01000977 C-87.3359983 95.99746628 -87.36530158 100.98449091 -87.40724754 105.97177696 C-87.41957832 107.87474999 -87.42467502 109.77778399 -87.42244911 111.68079567 C-87.42010133 114.34341258 -87.44222269 117.00478707 -87.4699707 119.66723633 C-87.46006859 120.84955338 -87.46006859 120.84955338 -87.44996643 122.05575562 C-87.51056568 125.59261282 -87.72927508 127.63023795 -89.84562683 130.52079773 C-92 132 -92 132 -95 132 C-95 137.28 -95 142.56 -95 148 C-93.35 148.66 -91.7 149.32 -90 150 C-88 152 -88 152 -87.625 155.375 C-88 159 -88 159 -89.49711609 161.19520569 C-93.01599087 163.7326167 -96.24395522 163.55234923 -100.42114258 163.50170898 C-101.69262398 163.50981346 -101.69262398 163.50981346 -102.98979187 163.51808167 C-105.79172706 163.53058734 -108.59263808 163.51406173 -111.39453125 163.49609375 C-113.3450272 163.49624874 -115.29552346 163.49773769 -117.24601746 163.50050354 C-121.33578086 163.50188851 -125.42519401 163.48931652 -129.51489258 163.46655273 C-134.74711004 163.43822438 -139.97874299 163.44088885 -145.2110033 163.45364285 C-149.24058485 163.46061349 -153.27003236 163.45279396 -157.29959679 163.44038582 C-159.2280291 163.4358808 -161.15647586 163.43552619 -163.08490944 163.43945122 C-165.78712825 163.44237556 -168.48855529 163.42579628 -171.19067383 163.40405273 C-171.98208771 163.40855438 -172.77350159 163.41305603 -173.58889771 163.41769409 C-180.01479574 163.33218123 -184.70000176 161.97906825 -189.6875 157.6875 C-195.49552116 150.93763758 -197.14854433 146.19125352 -197.17700195 137.43286133 C-197.18685875 136.12011734 -197.18685875 136.12011734 -197.19691467 134.78085327 C-197.21664281 131.88124505 -197.22831026 128.98168866 -197.23828125 126.08203125 C-197.24235678 125.0908045 -197.2464323 124.09957775 -197.25063133 123.07831383 C-197.2714917 117.83012475 -197.28579262 112.5819618 -197.29516602 107.33374023 C-197.30622007 101.92110573 -197.34060865 96.5088835 -197.38033772 91.09639454 C-197.40652475 86.92784375 -197.4148598 82.7593908 -197.41844749 78.590765 C-197.42330937 76.59613961 -197.43491195 74.60151848 -197.45348549 72.60697365 C-197.47791734 69.80902403 -197.47690432 67.01213568 -197.4699707 64.21411133 C-197.48278076 63.39666946 -197.49559082 62.5792276 -197.50878906 61.73701477 C-197.44836845 55.01652533 -195.43453451 49.9357622 -191.140625 44.7578125 C-190.51671875 44.21898437 -189.8928125 43.68015625 -189.25 43.125 C-188.32960938 42.29355469 -188.32960938 42.29355469 -187.390625 41.4453125 C-181.72911223 38.02250249 -175.29268089 37.70715176 -168.82739258 37.74462891 C-167.66725899 37.73919823 -167.66725899 37.73919823 -166.48368835 37.73365784 C-164.81957483 37.72681172 -163.15543908 37.72424933 -161.49131203 37.72560501 C-158.85535809 37.72657694 -156.21980444 37.71355231 -153.58390808 37.69662476 C-146.09511308 37.65053541 -138.60636384 37.62572889 -131.11743164 37.61914062 C-126.52391081 37.61412684 -121.93081533 37.58989469 -117.33743858 37.55381393 C-115.5915857 37.54402312 -113.84567429 37.54168008 -112.09980202 37.54698563 C-109.66087859 37.55405519 -107.22322701 37.53678119 -104.78442383 37.51416016 C-103.70815231 37.52641884 -103.70815231 37.52641884 -102.61013794 37.53892517 C-97.82353662 37.45999523 -95.33386061 36.4351743 -92 33 C-91.19456919 30.54768829 -91.19456919 30.54768829 -91.0625 27.875 C-89.85437641 19.63779372 -86.22160288 13.50544737 -79.8125 8.1875 C-57.7272754 -7.38916504 -25.07296711 -7.97776226 0 0 Z M-176 139 C-175.67 139.99 -175.34 140.98 -175 142 C-155.86 142 -136.72 142 -117 142 C-117 141.01 -117 140.02 -117 139 C-136.47 139 -155.94 139 -176 139 Z " fill="#FCFCFC" transform="translate(308,331)"/>
<path d="M0 0 C1.71802382 3.43604765 1.1196618 7.38438896 1.09765625 11.1640625 C1.0962413 12.07127045 1.09482635 12.97847839 1.09336853 13.91317749 C1.08776096 16.81715155 1.07520718 19.72104915 1.0625 22.625 C1.05748598 24.59114472 1.0529229 26.55729065 1.04882812 28.5234375 C1.03863899 33.34901166 1.01906507 38.17442 1 43 C8.59 43 16.18 43 24 43 C24.03738281 40.00292969 24.07476562 37.00585938 24.11328125 33.91796875 C24.15947833 31.0187241 24.21071859 28.11960951 24.26245117 25.22045898 C24.2957271 23.20393765 24.32375068 21.18732258 24.34643555 19.1706543 C24.37993256 16.273519 24.43224544 13.37724482 24.48828125 10.48046875 C24.49467117 9.57725388 24.5010611 8.674039 24.50764465 7.74345398 C24.52743881 6.90280899 24.54723297 6.062164 24.56762695 5.19604492 C24.57873001 4.45658127 24.58983307 3.71711761 24.60127258 2.95524597 C25.11985527 0.4122638 25.94200927 -0.4469339 28 -2 C30.72587077 -2.95735081 33.26390922 -3.13326896 36.13842773 -3.16113281 C36.94283798 -3.17074036 37.74724823 -3.1803479 38.57603455 -3.19024658 C39.43652908 -3.19449646 40.29702362 -3.19874634 41.18359375 -3.203125 C42.52237328 -3.21167511 42.52237328 -3.21167511 43.88819885 -3.22039795 C45.77351705 -3.22983118 47.65885161 -3.23637526 49.54418945 -3.24023438 C52.4236322 -3.24995319 55.30236487 -3.28099754 58.18164062 -3.3125 C60.01562077 -3.31902929 61.84960601 -3.32428005 63.68359375 -3.328125 C64.54206406 -3.3404718 65.40053436 -3.3528186 66.28501892 -3.36553955 C71.00981113 -3.34798107 74.18914859 -3.10989524 78 0 C80.97190438 4.45785657 80.50528391 8.77107708 80 14 C78.39701349 17.74030185 77.40262302 18.73158465 74 21 C74.99 21.99 74.99 21.99 76 23 C76.27965937 25.51399051 76.41605309 27.85856198 76.4375 30.375 C76.47037109 31.04789062 76.50324219 31.72078125 76.53710938 32.4140625 C76.55859375 34.3984375 76.55859375 34.3984375 76 38 C73.47265625 40.4765625 73.47265625 40.4765625 71 42 C72.98 42.66 74.96 43.32 77 44 C77.25144775 43.18684326 77.50289551 42.37368652 77.76196289 41.53588867 C79.21742991 37.37901057 80.97610292 33.42752361 82.80859375 29.42578125 C83.1759816 28.62013229 83.54336945 27.81448334 83.92189026 26.98442078 C84.6960258 25.2902067 85.47184958 23.59676312 86.24926758 21.90405273 C87.43700316 19.31358362 88.61417395 16.71847976 89.79101562 14.12304688 C90.54623254 12.47366401 91.30207064 10.82456541 92.05859375 9.17578125 C92.40869003 8.4007576 92.75878632 7.62573395 93.11949158 6.82722473 C93.61999779 5.74546211 93.61999779 5.74546211 94.13061523 4.6418457 C94.41992416 4.00930374 94.70923309 3.37676178 95.00730896 2.72505188 C96.86569866 -0.50437048 98.44933154 -1.81644385 102 -3 C103.95475009 -3.1447963 105.9151138 -3.22067502 107.875 -3.25 C108.90367187 -3.27578125 109.93234375 -3.3015625 110.9921875 -3.328125 C114.53414755 -2.94172936 116.20206393 -2.19771876 119 0 C122.19362303 4.37548302 124.48277443 8.88577207 126.671875 13.8046875 C127.16279633 14.8906572 127.16279633 14.8906572 127.66363525 15.99856567 C128.6974425 18.288488 129.72382432 20.58164918 130.75 22.875 C131.45393706 24.43772083 132.15835943 26.00022314 132.86328125 27.5625 C134.58114173 31.37249677 136.29235548 35.18541416 138 39 C138.01458252 37.86457764 138.02916504 36.72915527 138.04418945 35.55932617 C138.10213676 31.34904391 138.17936941 27.1392985 138.26245117 22.92944336 C138.2957174 21.10694081 138.32374406 19.28433481 138.34643555 17.46166992 C138.37995081 14.8424875 138.43226352 12.22425452 138.48828125 9.60546875 C138.49467117 8.78974899 138.5010611 7.97402924 138.50764465 7.1335907 C138.65550309 1.45234386 138.65550309 1.45234386 140.27702332 -0.67680359 C143.31922334 -3.01312548 146.40348113 -3.12492848 150.13842773 -3.16113281 C150.94283798 -3.17074036 151.74724823 -3.1803479 152.57603455 -3.19024658 C153.43652908 -3.19449646 154.29702362 -3.19874634 155.18359375 -3.203125 C156.52237328 -3.21167511 156.52237328 -3.21167511 157.88819885 -3.22039795 C159.77351705 -3.22983118 161.65885161 -3.23637526 163.54418945 -3.24023438 C166.4236322 -3.24995319 169.30236487 -3.28099754 172.18164062 -3.3125 C174.01562077 -3.31902929 175.84960601 -3.32428005 177.68359375 -3.328125 C178.54206406 -3.3404718 179.40053436 -3.3528186 180.28501892 -3.36553955 C185.00981113 -3.34798107 188.18914859 -3.10989524 192 0 C194.97215268 4.45822902 194.50456528 8.77086897 194 14 C192.6875 17.125 192.6875 17.125 191 19 C187.8815675 20.0394775 185.72524414 20.11494838 182.45703125 20.09765625 C181.38388672 20.09443359 180.31074219 20.09121094 179.20507812 20.08789062 C178.08552734 20.07951172 176.96597656 20.07113281 175.8125 20.0625 C174.68134766 20.05798828 173.55019531 20.05347656 172.38476562 20.04882812 C169.58979073 20.03703498 166.7949218 20.0205765 164 20 C164 20.66 164 21.32 164 22 C164.60996826 21.97905273 165.21993652 21.95810547 165.84838867 21.93652344 C168.62792294 21.85307139 171.4071932 21.80124989 174.1875 21.75 C175.14720703 21.71648437 176.10691406 21.68296875 177.09570312 21.6484375 C181.36069716 21.58940644 184.2728873 21.64321799 188.14453125 23.54296875 C190.72776429 26.96371313 190.5996122 29.31653003 190.5 33.5625 C190.50257813 34.23474609 190.50515625 34.90699219 190.5078125 35.59960938 C190.45138138 38.44091651 190.3278115 40.51327987 188.71875 42.90234375 C185.48303661 44.96878798 182.21916056 45.12310244 178.453125 45.09765625 C177.60878906 45.09443359 176.76445313 45.09121094 175.89453125 45.08789062 C175.02183594 45.07951172 174.14914062 45.07113281 173.25 45.0625 C172.36183594 45.05798828 171.47367188 45.05347656 170.55859375 45.04882812 C168.37232671 45.037074 166.18619821 45.02064249 164 45 C164.04640625 46.10859375 164.0928125 47.2171875 164.140625 48.359375 C164.17815102 49.82288968 164.21455029 51.28643356 164.25 52.75 C164.28351563 53.47960937 164.31703125 54.20921875 164.3515625 54.9609375 C164.41629919 58.52145536 164.33062417 60.55634193 162.171875 63.453125 C156.81287715 67.26996519 150.10670513 66.22311443 143.80371094 66.24023438 C141.63958215 66.24993464 139.47640581 66.28096767 137.3125 66.3125 C135.92969312 66.31903127 134.54687947 66.32428126 133.1640625 66.328125 C131.91061035 66.3374707 130.6571582 66.34681641 129.36572266 66.35644531 C125.74334421 65.97281899 123.89066061 65.16758274 121 63 C119.63671875 61.02734375 119.63671875 61.02734375 118.6875 58.9375 C118.36136719 58.24527344 118.03523437 57.55304688 117.69921875 56.83984375 C117 55 117 55 117 53 C108.585 53.495 108.585 53.495 100 54 C99.401875 55.258125 98.80375 56.51625 98.1875 57.8125 C96.80116952 60.72857447 95.48944771 62.91187383 93 65 C89.87763026 66.04078991 87.705511 66.12680341 84.43041992 66.12939453 C83.28880905 66.13254669 82.14719818 66.13569885 80.97099304 66.13894653 C79.73662003 66.1369223 78.50224701 66.13489807 77.23046875 66.1328125 C75.96157303 66.13376923 74.69267731 66.13472595 73.3853302 66.13571167 C70.69785164 66.13639286 68.01046369 66.13504374 65.32299805 66.13037109 C61.89001644 66.12469121 58.45711332 66.12794341 55.02413464 66.13394356 C51.73874327 66.13844366 48.45336114 66.13528404 45.16796875 66.1328125 C43.93966843 66.13483673 42.7113681 66.13686096 41.44584656 66.13894653 C39.71924553 66.13421829 39.71924553 66.13421829 37.95776367 66.12939453 C36.94977219 66.12859894 35.9417807 66.12780334 34.90324402 66.12698364 C32 66 32 66 28.81513977 65.42941284 C25.92924153 64.77043816 25.92924153 64.77043816 23 66 C20.03631834 66.10945938 17.09687744 66.16405959 14.1328125 66.16796875 C13.26107391 66.17129715 12.38933533 66.17462555 11.49118042 66.17805481 C9.64695768 66.18311699 7.80272578 66.18546335 5.95849609 66.18530273 C3.14274925 66.18748624 0.32739612 66.20564112 -2.48828125 66.22460938 C-4.28124866 66.22754407 -6.07421793 66.22952836 -7.8671875 66.23046875 C-8.70692108 66.23765427 -9.54665466 66.24483978 -10.41183472 66.25224304 C-15.8103989 66.23123896 -19.99716433 66.00283567 -24 62 C-24.26069641 59.46388245 -24.26069641 59.46388245 -24.2746582 56.22094727 C-24.28419022 55.00951553 -24.29372223 53.7980838 -24.30354309 52.54994202 C-24.30263168 51.23537521 -24.30172028 49.92080841 -24.30078125 48.56640625 C-24.30466705 47.20881519 -24.30900148 45.85122534 -24.31376648 44.49363708 C-24.32123395 41.64635276 -24.3209338 38.79919241 -24.31567383 35.9519043 C-24.30988013 32.30207465 -24.32680455 28.65275263 -24.3500185 25.00300694 C-24.36474725 22.19859344 -24.36562873 19.39430242 -24.36250877 16.5898571 C-24.36327241 14.58955021 -24.37715432 12.58926232 -24.39118958 10.58900452 C-24.38496078 9.37442062 -24.37873199 8.15983673 -24.37231445 6.90844727 C-24.37294388 5.83748306 -24.3735733 4.76651886 -24.3742218 3.6631012 C-24 1 -24 1 -22.592453 -0.82728577 C-16.55659782 -5.27221022 -5.80742145 -3.97349889 0 0 Z " fill="#FAFAFA" transform="translate(444,404)"/>
<path d="M0 0 C5.0812208 3.99437833 8.39572723 8.12647216 9.82421875 14.4921875 C10.66824381 23.08190086 11.21210054 32.2409364 5.82421875 39.4921875 C-0.26618164 46.26461701 -5.84560471 50.05264267 -14.91796875 50.80078125 C-25.17148725 51.24500759 -32.35070724 49.70168352 -40.48828125 43.3046875 C-46.29476223 37.78795108 -48.28056817 32.62257446 -48.64477539 24.60717773 C-48.76772431 16.22051219 -47.92516732 9.66144588 -42.1875 3.28125 C-30.44980416 -7.94963686 -13.44662952 -9.31849012 0 0 Z M-29.17578125 16.4921875 C-30.68228901 21.01171077 -30.92142044 24.85178128 -28.92578125 29.2421875 C-25.86776163 33.17392702 -24.37777946 34.33709096 -19.30078125 34.9921875 C-14.51801173 34.82233213 -12.4184749 32.89306133 -9.17578125 29.4921875 C-7.66927349 24.97266423 -7.43014206 21.13259372 -9.42578125 16.7421875 C-12.48380087 12.81044798 -13.97378304 11.64728404 -19.05078125 10.9921875 C-23.83355077 11.16204287 -25.9330876 13.09131367 -29.17578125 16.4921875 Z " fill="#FBFBFB" transform="translate(342.17578125,412.5078125)"/>
<path d="M0 0 C5.0812208 3.99437833 8.39572723 8.12647216 9.82421875 14.4921875 C10.66824381 23.08190086 11.21210054 32.2409364 5.82421875 39.4921875 C-0.26618164 46.26461701 -5.84560471 50.05264267 -14.91796875 50.80078125 C-25.17148725 51.24500759 -32.35070724 49.70168352 -40.48828125 43.3046875 C-46.29476223 37.78795108 -48.28056817 32.62257446 -48.64477539 24.60717773 C-48.76772431 16.22051219 -47.92516732 9.66144588 -42.1875 3.28125 C-30.44980416 -7.94963686 -13.44662952 -9.31849012 0 0 Z M-29.17578125 16.4921875 C-30.68228901 21.01171077 -30.92142044 24.85178128 -28.92578125 29.2421875 C-25.86776163 33.17392702 -24.37777946 34.33709096 -19.30078125 34.9921875 C-14.51801173 34.82233213 -12.4184749 32.89306133 -9.17578125 29.4921875 C-7.66927349 24.97266423 -7.43014206 21.13259372 -9.42578125 16.7421875 C-12.48380087 12.81044798 -13.97378304 11.64728404 -19.05078125 10.9921875 C-23.83355077 11.16204287 -25.9330876 13.09131367 -29.17578125 16.4921875 Z " fill="#FBFBFB" transform="translate(276.17578125,412.5078125)"/>
<path d="M0 0 C3.96 0 7.92 0 12 0 C17.36126767 10.54421669 22.48008428 21.17664862 27.38452148 31.94091797 C28.45674799 34.29220902 29.53578332 36.64029947 30.61523438 38.98828125 C31.3050912 40.49721134 31.99455962 42.00631906 32.68359375 43.515625 C33.0033165 44.21036926 33.32303925 44.90511353 33.65245056 45.62091064 C35.07788874 48.76183306 36.15927931 51.63711723 37 55 C32.71 55 28.42 55 24 55 C19 44.25 19 44.25 19 42 C10.42 42 1.84 42 -7 42 C-7.99 44.97 -8.98 47.94 -10 51 C-10.66 52.32 -11.32 53.64 -12 55 C-15.96 55 -19.92 55 -24 55 C-23.3006869 51.50343449 -22.84161668 49.30308433 -21.42114258 46.2421875 C-21.10023148 45.54375732 -20.77932037 44.84532715 -20.44868469 44.12573242 C-20.10081406 43.38299072 -19.75294342 42.64024902 -19.39453125 41.875 C-18.85199959 40.69997925 -18.85199959 40.69997925 -18.29850769 39.5012207 C-17.14152974 36.99845096 -15.97716819 34.4991989 -14.8125 32 C-14.04833367 30.35048939 -13.28465708 28.70075181 -12.52148438 27.05078125 C-11.04139836 23.85284729 -9.55850999 20.65624102 -8.07275391 17.4609375 C-5.36943155 11.64633261 -2.6846831 5.82323606 0 0 Z " fill="#3C4D42" transform="translate(546,408)"/>
<path d="M0 0 C3.96 0 7.92 0 12 0 C12.33 7.92 12.66 15.84 13 24 C18.88463426 18.1259575 18.88463426 18.1259575 24.5 12 C25.36238281 11.02546875 25.36238281 11.02546875 26.2421875 10.03125 C27.45582215 8.62882774 28.62580194 7.18784815 29.7578125 5.71875 C32.78731155 2.11884318 34.62518204 0.20227207 39.3984375 -0.5 C42.63836804 -0.5 45.78073996 -0.35333342 49 0 C47.65324235 2.97977276 46.139133 5.13709317 43.8828125 7.49609375 C42.97208984 8.45805664 42.97208984 8.45805664 42.04296875 9.43945312 C41.41003906 10.09880859 40.77710938 10.75816406 40.125 11.4375 C36.24315763 15.50743164 32.42778651 19.5300975 29 24 C30.54444076 27.48509931 32.62475353 30.14322337 35.0625 33.0625 C35.85914063 34.02414062 36.65578125 34.98578125 37.4765625 35.9765625 C38.30929687 36.97429687 39.14203125 37.97203125 40 39 C41.64938975 40.97620381 43.29537349 42.95525668 44.9375 44.9375 C45.66839844 45.81277344 46.39929688 46.68804687 47.15234375 47.58984375 C48.75674224 49.68268491 49.93613161 51.59933363 51 54 C39.28102033 55.67172765 39.28102033 55.67172765 34.08984375 51.8671875 C31.52592949 49.02191634 29.24109923 46.1048977 27 43 C25.62746563 41.26887557 24.25273847 39.53948555 22.875 37.8125 C21.91184956 36.5453136 20.95147097 35.27597928 20 34 C17.06698806 35.60817887 14.95814145 37.26989895 13 40 C12.08590376 44.67435575 11.95440863 49.24547091 12 54 C8.04 54 4.08 54 0 54 C0 36.18 0 18.36 0 0 Z " fill="#FCFCFC" transform="translate(363,408)"/>
<path d="M0 0 C13.86 0 27.72 0 42 0 C42 2.97 42 5.94 42 9 C32.1 9 22.2 9 12 9 C12 13.29 12 17.58 12 22 C20.91 22 29.82 22 39 22 C39 24.97 39 27.94 39 31 C30.09 31 21.18 31 12 31 C12 35.95 12 40.9 12 46 C22.23 46 32.46 46 43 46 C43 48.97 43 51.94 43 55 C28.81 55 14.62 55 0 55 C0 36.85 0 18.7 0 0 Z " fill="#3C4D42" transform="translate(475,408)"/>
<path d="M0 0 C13.86 0 27.72 0 42 0 C42 2.97 42 5.94 42 9 C32.1 9 22.2 9 12 9 C12 14.28 12 19.56 12 25 C20.91 25 29.82 25 39 25 C39 27.97 39 30.94 39 34 C30.42 34 21.84 34 13 34 C13 40.93 13 47.86 13 55 C8.71 55 4.42 55 0 55 C0 36.85 0 18.7 0 0 Z " fill="#3F4F45" transform="translate(589,408)"/>
<path d="M0 0 C0.6638269 -0.00058411 1.32765381 -0.00116821 2.01159668 -0.00177002 C4.19804832 0.00100891 6.38312356 0.03208829 8.56933594 0.06347656 C10.08818822 0.07093972 11.60705016 0.0766323 13.12591553 0.08062744 C17.11774419 0.09587815 21.10898791 0.13515434 25.10058594 0.17944336 C29.17602628 0.22040867 33.25156142 0.2386411 37.32714844 0.25878906 C45.3196339 0.30164998 53.31153219 0.37199446 61.30371094 0.45410156 C61.30371094 6.06410156 61.30371094 11.67410156 61.30371094 17.45410156 C52.65437601 17.5671443 44.0055331 17.65884068 35.35562611 17.71316242 C31.33893665 17.73923663 27.32277955 17.77459334 23.30639648 17.83129883 C19.42897513 17.88569865 15.55206518 17.91553848 11.67429161 17.92848778 C10.1962752 17.93771358 8.71828623 17.95573014 7.24048805 17.98275185 C5.1669572 18.01915244 3.0955284 18.02404295 1.02172852 18.02172852 C-0.15741623 18.03283157 -1.33656097 18.04393463 -2.55143738 18.05537415 C-6.62860945 17.27584874 -8.10940807 15.62220619 -10.69628906 12.45410156 C-11.60367048 9.42761821 -11.16062039 7.70442086 -10.69628906 4.45410156 C-7.59199809 0.19561958 -5.11982324 -0.03792462 0 0 Z M-4.69628906 7.45410156 C-4.36628906 8.44410156 -4.03628906 9.43410156 -3.69628906 10.45410156 C15.44371094 10.45410156 34.58371094 10.45410156 54.30371094 10.45410156 C54.30371094 9.46410156 54.30371094 8.47410156 54.30371094 7.45410156 C34.83371094 7.45410156 15.36371094 7.45410156 -4.69628906 7.45410156 Z " fill="#445449" transform="translate(136.6962890625,462.5458984375)"/>
<path d="M0 0 C3.96 0 7.92 0 12 0 C12 15.18 12 30.36 12 46 C21.57 46 31.14 46 41 46 C41 48.97 41 51.94 41 55 C27.47 55 13.94 55 0 55 C0 36.85 0 18.7 0 0 Z " fill="#3E4E44" transform="translate(426,408)"/>
<path d="M0 0 C4.15422393 2.79958569 7.61888159 6.42526317 9.875 10.9375 C10.37634255 17.37782357 10.85448918 23.54593401 6.875 28.9375 C2.50889507 33.30360493 -0.57341216 35.77018276 -6.9375 36.1875 C-11.84139614 36.08888417 -15.24335924 34.80151415 -18.79296875 31.28515625 C-23.8114816 25.64677958 -24.48375983 21.39118453 -24.40234375 13.8828125 C-23.88992664 8.44108711 -20.969734 5.57427889 -17.0625 2.125 C-11.73650086 -1.84116957 -6.14875499 -2.0905767 0 0 Z M-17.125 10.9375 C-18.63150776 15.45702327 -18.87063919 19.29709378 -16.875 23.6875 C-13.81698038 27.61923952 -12.32699821 28.78240346 -7.25 29.4375 C-2.46723048 29.26764463 -0.36769365 27.33837383 2.875 23.9375 C4.38150776 19.41797673 4.62063919 15.57790622 2.625 11.1875 C-0.43301962 7.25576048 -1.92300179 6.09259654 -7 5.4375 C-11.78276952 5.60735537 -13.88230635 7.53662617 -17.125 10.9375 Z " fill="#3D4E43" transform="translate(330.125,418.0625)"/>
<path d="M0 0 C4.15422393 2.79958569 7.61888159 6.42526317 9.875 10.9375 C10.37634255 17.37782357 10.85448918 23.54593401 6.875 28.9375 C2.50889507 33.30360493 -0.57341216 35.77018276 -6.9375 36.1875 C-11.84139614 36.08888417 -15.24335924 34.80151415 -18.79296875 31.28515625 C-23.8114816 25.64677958 -24.48375983 21.39118453 -24.40234375 13.8828125 C-23.88992664 8.44108711 -20.969734 5.57427889 -17.0625 2.125 C-11.73650086 -1.84116957 -6.14875499 -2.0905767 0 0 Z M-17.125 10.9375 C-18.63150776 15.45702327 -18.87063919 19.29709378 -16.875 23.6875 C-13.81698038 27.61923952 -12.32699821 28.78240346 -7.25 29.4375 C-2.46723048 29.26764463 -0.36769365 27.33837383 2.875 23.9375 C4.38150776 19.41797673 4.62063919 15.57790622 2.625 11.1875 C-0.43301962 7.25576048 -1.92300179 6.09259654 -7 5.4375 C-11.78276952 5.60735537 -13.88230635 7.53662617 -17.125 10.9375 Z " fill="#3D4E43" transform="translate(264.125,418.0625)"/>
<path d="M0 0 C7.52969652 -0.02526648 15.0593822 -0.04283141 22.58911133 -0.05493164 C25.15291757 -0.0599737 27.71672091 -0.06680714 30.28051758 -0.07543945 C33.95655021 -0.08751064 37.63254498 -0.09322942 41.30859375 -0.09765625 C42.46274277 -0.10281754 43.61689178 -0.10797882 44.80601501 -0.11329651 C46.3975515 -0.11340981 46.3975515 -0.11340981 48.02124023 -0.11352539 C48.96055893 -0.115746 49.89987762 -0.11796661 50.86766052 -0.12025452 C53 0 53 0 54 1 C54.1875 3.9375 54.1875 3.9375 54 7 C51.48138293 9.51861707 50.62482206 9.26075193 47.13891602 9.29052734 C46.1276918 9.30328705 45.11646759 9.31604675 44.07460022 9.32919312 C42.97877121 9.33141876 41.8829422 9.33364441 40.75390625 9.3359375 C39.07082619 9.3459227 39.07082619 9.3459227 37.35374451 9.35610962 C34.97730147 9.36624899 32.60082988 9.37092624 30.22436523 9.37060547 C26.5807422 9.37497811 22.93833035 9.41128454 19.29492188 9.44921875 C16.98958749 9.4550866 14.68424733 9.4590562 12.37890625 9.4609375 C10.73819908 9.48249405 10.73819908 9.48249405 9.06434631 9.50448608 C8.04996994 9.49833282 7.03559357 9.49217957 5.99047852 9.48583984 C5.09716324 9.48868988 4.20384796 9.49153992 3.28346252 9.49447632 C1 9 1 9 -0.93690491 7.28213501 C-2 5 -2 5 -1.1875 2.25 C-0.795625 1.5075 -0.40375 0.765 0 0 Z " fill="#435349" transform="translate(143,400)"/>
<path d="M0 0 C2.24586487 -0.36749268 2.24586487 -0.36749268 5.07641602 -0.35644531 C6.66299767 -0.36094696 6.66299767 -0.36094696 8.28163147 -0.36553955 C9.42748215 -0.35319275 10.57333282 -0.34084595 11.75390625 -0.328125 C13.51068947 -0.32531525 13.51068947 -0.32531525 15.30296326 -0.32244873 C17.78200115 -0.31571718 20.26102822 -0.30178103 22.73999023 -0.28125 C26.55006696 -0.25010164 30.35973048 -0.24028189 34.16992188 -0.234375 C36.57292175 -0.22520535 38.97591739 -0.2148297 41.37890625 -0.203125 C43.10071861 -0.19675018 43.10071861 -0.19675018 44.85731506 -0.19024658 C46.43916847 -0.17583527 46.43916847 -0.17583527 48.05297852 -0.16113281 C49.45290794 -0.15089081 49.45290794 -0.15089081 50.88111877 -0.14044189 C53 0 53 0 54 1 C54.125 4 54.125 4 54 7 C53 8 53 8 50.86766052 8.12025452 C49.92834183 8.11803391 48.98902313 8.11581329 48.02124023 8.11352539 C46.96021591 8.11344986 45.89919159 8.11337433 44.80601501 8.11329651 C43.07479149 8.10555458 43.07479149 8.10555458 41.30859375 8.09765625 C40.13361832 8.0962413 38.95864288 8.09482635 37.74806213 8.09336853 C33.97784936 8.08774992 30.20769496 8.07519426 26.4375 8.0625 C23.88867273 8.0574874 21.33984453 8.05292408 18.79101562 8.04882812 C12.52732367 8.03777444 6.26366601 8.02101821 0 8 C-1.125 5.6875 -1.125 5.6875 -2 3 C-1.34 2.01 -0.68 1.02 0 0 Z " fill="#3B4C41" transform="translate(143,416)"/>
<path d="M0 0 C0.66 0 1.32 0 2 0 C3.33631721 2.97783718 4.66855104 5.95748332 6 8.9375 C6.3815625 9.78763672 6.763125 10.63777344 7.15625 11.51367188 C7.5171875 12.32255859 7.878125 13.13144531 8.25 13.96484375 C8.58515625 14.7137085 8.9203125 15.46257324 9.265625 16.23413086 C10 18 10 18 10 19 C4.39 19 -1.22 19 -7 19 C-6.10656817 14.53284086 -4.76463639 10.80385599 -2.9375 6.6875 C-2.65583984 6.04232422 -2.37417969 5.39714844 -2.08398438 4.73242188 C-1.3937257 3.15301642 -0.69746802 1.57623507 0 0 Z " fill="#F7F7F7" transform="translate(551,422)"/>
</svg>